<?xml version="1.0" encoding="utf-8"?>
<!-- Generator: Adobe Illustrator 25.3.1, SVG Export Plug-In . SVG Version: 6.00 Build 0)  -->
<svg version="1.1" id="Ebene_1" xmlns="http://www.w3.org/2000/svg" xmlns:xlink="http://www.w3.org/1999/xlink" x="0px" y="0px"
	 viewBox="0 0 1000 1000" style="enable-background:new 0 0 1000 1000;" xml:space="preserve">
<style type="text/css">
	.st0{fill:#7BCAEF;}
</style>
<g>
	<path class="st0" d="M167.6,486.4l32.3-63.7h35.3l-51.4,94.5v60.3h-32.5v-59.2L100,422.7h35.6L167.6,486.4z"/>
	<path class="st0" d="M347.4,577.5l-11.3-36.9h-56.4l-11.3,36.9h-35.3l54.6-155.4h40.1l54.9,155.4H347.4z M328.3,513.1l-11.3-36
		c-0.7-2.5-1.7-5.6-2.8-9.3c-1.2-3.8-2.3-7.6-3.5-11.5c-1.2-3.9-2.1-7.3-2.8-10.2c-0.7,2.9-1.7,6.5-2.9,10.7
		c-1.2,4.3-2.4,8.3-3.5,12.1c-1.1,3.8-1.9,6.5-2.5,8.1l-11.1,36H328.3z"/>
	<path class="st0" d="M549.2,499.9c0,16-2.6,30-7.9,42c-5.3,11.9-13.4,21.2-24.3,27.9c-10.9,6.6-24.8,10-41.5,10
		c-16.8,0-30.6-3.3-41.5-10c-10.9-6.6-19-16-24.3-28c-5.3-12-7.9-26-7.9-42.1s2.6-30,7.9-41.8c5.3-11.9,13.4-21.1,24.3-27.6
		c10.9-6.6,24.8-9.9,41.7-9.9c16.8,0,30.6,3.3,41.4,9.9c10.8,6.6,18.9,15.8,24.2,27.8C546.6,469.9,549.2,483.8,549.2,499.9z
		 M436.3,499.9c0,16.2,3.1,28.9,9.3,38.3c6.2,9.3,16.2,14,29.9,14c14,0,24.1-4.7,30.1-14c6.1-9.3,9.1-22.1,9.1-38.3
		c0-16.2-3-28.9-9.1-38.3c-6.1-9.3-16-14-29.9-14s-23.9,4.7-30.1,14C439.4,470.9,436.3,483.7,436.3,499.9z"/>
	<path class="st0" d="M732.6,499.9c0,16-2.6,30-7.9,42c-5.3,11.9-13.4,21.2-24.3,27.9c-10.9,6.6-24.8,10-41.5,10
		c-16.8,0-30.6-3.3-41.5-10c-10.9-6.6-19-16-24.3-28c-5.3-12-7.9-26-7.9-42.1s2.6-30,7.9-41.8c5.3-11.9,13.4-21.1,24.3-27.6
		c10.9-6.6,24.8-9.9,41.7-9.9c16.8,0,30.6,3.3,41.4,9.9c10.8,6.6,18.9,15.8,24.2,27.8C730,469.9,732.6,483.8,732.6,499.9z
		 M619.7,499.9c0,16.2,3.1,28.9,9.3,38.3c6.2,9.3,16.2,14,29.9,14c14,0,24.1-4.7,30.1-14c6.1-9.3,9.1-22.1,9.1-38.3
		c0-16.2-3-28.9-9.1-38.3c-6.1-9.3-16-14-29.9-14s-23.9,4.7-30.1,14C622.8,470.9,619.7,483.7,619.7,499.9z"/>
	<path class="st0" d="M900,577.5h-37.3l-40.5-65.3l-13.9,10v55.3h-32.7V422.7h32.7v70.9c2.2-3,4.3-6.1,6.5-9.1
		c2.2-3,4.3-6.1,6.5-9.1l41.8-52.7h36.4l-54,68.5L900,577.5z"/>
</g>
</svg>
