<?xml version="1.0" encoding="utf-8"?>
<svg version="1.1" id="Ebene_1" x="0px" y="0px" viewBox="102.308 173.077 439.23 587.692" style="enable-background:new 0 0 1000 1000;" xmlns="http://www.w3.org/2000/svg">
  <style type="text/css">
	.st0{fill:#FFFFFF;}
</style>
  <path class="st0" d="M906.9,661.5c-2-6.1-5.6-11.6-10.3-15.9c-34.4-31.1-64.7-66.7-89.6-105.7c-11.5-18-21.9-36.7-30.9-55.6 c-0.5-1.1-1.3-2-2.2-2.7c-25.2-18.5-51.9-34.9-79.8-48.6c-1.3-0.7-2.6-1.3-3.9-1.9c-2.6-1.3-5.3-2.6-7.7-3.7 c-1.8-0.9-3.7-1.8-5.4-2.5c-1.5-0.7-3-1.4-4.5-2c-8.6-3.9-17.7-7.5-26.4-10.8c-1.1-0.5-2.2-0.9-2.9-1.1c-25-9.2-50.1-16.4-76.3-21.8 c-0.1,0-0.2,0-0.3-0.1c-22.1-4.5-44.4-7.6-66.9-9.2c-0.1,0-0.6,0-0.7,0c-16.8-1.2-36.8-1.8-52.9-1.2c-6.3-17.2-15.7-34.7-26.3-49.3 c-0.5-0.8-1.1-1.5-1.6-2.2c-0.7-0.9-1.3-1.8-2.1-2.7c-5.3-7.1-10.9-13.5-17.1-19.8c-5.1-5.3-10.8-10.5-16.4-15 c-1.5-1.3-3.1-2.6-4.4-3.5c-2.2-1.8-4.4-3.5-6.6-5c-16.9-12.2-35.3-21.8-55-28.6c-1-1.6-1.8-3.2-2.6-4.8c-0.8-1.5-1.5-2.9-2.3-4.7 c-2.8-5.8-5-11.5-6.7-17.7c-0.4-1.2-0.7-2.4-1-3.8c-1-4-1.8-7.7-2.3-11.4c-0.6-5.2-7.3-7.9-11.3-4.6c-4.6,3.6-9.7,7.8-13.7,12.1 c-3.2,3.2-7.2,7.5-10.3,11.6c-1.2,1.4-2.2,2.8-3.2,4.2c-0.7,0.9-1.3,1.9-1.8,2.6c-2.1,2.9-3.9,5.7-5.6,8.7 c-2.3-8.2-3.7-16.7-4.1-25.3c-0.2-3.1-2.3-5.7-5.3-6.5c-3-0.8-6.1,0.5-7.8,3.1c-2.5,3.9-5.1,7.7-7.9,11.4 c-28.4,37.7-70.1,64.6-116.2,74.2c-4.5,0.8-7.1,6.2-4.9,10.2c11.6,22.4,22.4,40.5,36.7,61c1.2,1.7,3,2.7,5,3 c16.2,1.9,32.7,2.9,49.1,3.2c0,1.3-0.1,71.4,0,72.7c-2.6,84.1,49.7,165.3,127.1,198c0.2,1.2,0.4,2.3,0.7,3.5c0,0.4,0.1,0.8,0.2,1.2 c2.9,15,6.5,30,10.7,44.6c2.3,8.3,5,16.6,7.8,24.7c0.1,0.4,0.3,0.9,0.4,1.2c0.1,0.3,0.2,0.7,0.4,1c0.7,2.1,1.4,4.2,2.1,6 c0.1,0.3,0.2,0.6,0.4,0.9c2,5.5,4.2,11.3,6.4,16.7c-9.8,8.8-21,15.9-33.2,21.1c-3.7,1.5-5.4,6.2-3.6,9.7 c5.6,11.3,12.8,21.7,21.5,31.1c1.3,1.5,3.2,2.3,5.2,2.3h71c3.5,0,6.5-2.6,7.1-6.1c6.1-21,8.9-43,8.2-64.9c0,0,0-0.5,0-0.5 c-0.8-25.7-6.2-50.6-16-74.1c74.6-39.1,158.5-59.1,243-58.3c12.3,15.5,25.9,30.8,40,44.9c0,0,0.3,0.3,0.3,0.3 c1.2,1.2,2.4,2.4,3.5,3.4c1.2,1.2,2.3,2.3,3.7,3.6c0.3,0.3,0.5,0.5,0.8,0.7c0.7,0.8,1.5,1.5,2.3,2.2c0.6,0.6,1.2,1.2,1.6,1.5 c5.9,5.7,11.9,11,18.1,16.3c1.7,1.5,3.4,3,5.2,4.4c17,14.5,35.3,27.8,53.9,39.7c-1.1,9.1-2.8,18.2-5.1,27.1 c-8.6,6.8-17.9,12.4-27.8,16.6c-1.8,0.8-3.2,2.2-3.9,4.1c-0.7,1.8-0.6,3.9,0.3,5.6c4.1,8.4,9.3,16.4,15.2,23.7 c1.8,2.3,3.8,4.7,6.3,7.4c1.3,1.4,3.2,2.3,5.2,2.3h71c3.2,0,5.9-2.1,6.8-5.1c9.3-31.4,11.1-65.6,5.1-97.8 C891.1,717.5,916.3,689.3,906.9,661.5z M218.9,312.1c-6.5,0-11.8-5.3-11.8-11.8c0-6.5,5.3-11.9,11.8-11.9c6.5,0,11.9,5.4,11.9,11.9 C230.8,306.9,225.5,312.1,218.9,312.1z"/>
</svg>