<?xml version="1.0" encoding="utf-8"?>
<!-- Generator: Adobe Illustrator 25.4.1, SVG Export Plug-In . SVG Version: 6.00 Build 0)  -->
<svg version="1.1" id="yaook_brand" xmlns="http://www.w3.org/2000/svg" xmlns:xlink="http://www.w3.org/1999/xlink" x="0px"
	 y="0px" viewBox="0 0 1000 1000" style="enable-background:new 0 0 1000 1000;" xml:space="preserve">
<style type="text/css">
	.st0{fill:#FFFFFF;}
</style>
<g>
	<path class="st0" d="M301.1,217.1c0,4.7-3.8,8.4-8.5,8.4c-4.7,0-8.4-3.8-8.4-8.4c0-4.7,3.8-8.5,8.4-8.5
		C297.3,208.6,301.1,212.5,301.1,217.1z"/>
	<g>
		<path class="st0" d="M660.4,691.2c-44.2,0-80.2,36-80.2,80.2c0,44.2,36,80.2,80.2,80.2s80.2-36,80.2-80.2
			C740.5,727.2,704.6,691.2,660.4,691.2z M715.7,771.4c0,30.5-24.8,55.3-55.3,55.3S605,801.9,605,771.4c0-30.5,24.8-55.3,55.3-55.3
			S715.7,740.9,715.7,771.4z"/>
		<path class="st0" d="M467.5,691.2c-44.2,0-80.2,36-80.2,80.2c0,44.2,36,80.2,80.2,80.2s80.2-36,80.2-80.2
			C547.7,727.2,511.7,691.2,467.5,691.2z M522.9,771.4c0,30.5-24.8,55.3-55.3,55.3s-55.3-24.8-55.3-55.3c0-30.5,24.8-55.3,55.3-55.3
			S522.9,740.9,522.9,771.4z"/>
	</g>
	<path class="st0" d="M235.7,689.9c-0.3-0.5-0.9-0.9-1.5-0.9h-23.9c-0.6,0-1.2,0.3-1.5,0.9L168,763.4l-40.8-73.5
		c-0.3-0.6-0.9-0.9-1.5-0.9h-23.9c-0.6,0-1.2,0.3-1.5,0.9c-0.3,0.5-0.3,1.2,0,1.7l55.6,100.1v58.1c0,1,0.8,1.7,1.7,1.7h20.9
		c1,0,1.7-0.8,1.7-1.7v-58.1l55.6-100.1C236.1,691.1,236,690.4,235.7,689.9z"/>
	<path class="st0" d="M317.8,690.2c-0.2-0.7-0.9-1.2-1.7-1.2h-24.7c-0.7,0-1.4,0.5-1.6,1.2l-54.7,159c-0.2,0.5-0.1,1.1,0.2,1.6
		c0.3,0.5,0.9,0.7,1.4,0.7h22.1c0.7,0,1.4-0.5,1.6-1.2l13.8-40.1h58.6l13.7,40.1c0.2,0.7,0.9,1.2,1.7,1.2h22.1
		c0.6,0,1.1-0.3,1.4-0.7c0.3-0.5,0.4-1,0.2-1.6L317.8,690.2z M324.6,785.9h-41.9l21-61.1L324.6,785.9z"/>
	<path class="st0" d="M899.6,848.2l-69.5-89L895,692c0.5-0.5,0.6-1.2,0.4-1.9c-0.3-0.6-0.9-1.1-1.6-1.1h-29.1
		c-0.5,0-0.9,0.2-1.3,0.5l-61.1,63.2v-62c0-1-0.8-1.7-1.7-1.7h-20.9c-1,0-1.7,0.8-1.7,1.7v158.5c0,1,0.8,1.7,1.7,1.7h20.9
		c1,0,1.7-0.8,1.7-1.7v-61.4l10.6-11l57.4,73.4c0.3,0.4,0.8,0.7,1.4,0.7h26.6c0.7,0,1.3-0.4,1.6-1
		C900.1,849.5,900,848.8,899.6,848.2z"/>
	<path class="st0" d="M784.7,475.4c-1.5-4.3-4-8.3-7.3-11.4c-2.3-2.1-4.6-4.2-6.9-6.4c-10.5-10-20.5-20.6-29.7-31.6
		c-9.9-11.9-19.2-24.5-27.5-37.5c-8.3-12.9-15.7-26.3-22.1-39.7c-0.2-0.3-0.3-0.6-0.6-0.9c-0.3-0.4-0.6-0.7-1-1c0,0,0,0-0.1-0.1
		c-2.5-1.9-5.1-3.7-7.6-5.4c-1.9-1.3-3.8-2.6-5.6-3.9c-8.7-5.9-17.6-11.4-26.6-16.4l-1.1-0.6c-2.6-1.5-5.3-2.9-8-4.3
		c-2.7-1.5-5.5-2.8-8.1-4.1c-0.9-0.5-1.9-0.9-2.8-1.4c-1.9-1-3.8-1.8-5.5-2.6c-1.3-0.7-2.6-1.3-3.9-1.8c-1.1-0.5-2.2-1-3.2-1.4
		c-1.7-0.8-3.5-1.6-5.2-2.3c-2.5-1.1-5.1-2.1-7.5-3.1c-2.1-0.9-4.2-1.7-6.2-2.4c-0.8-0.3-1.5-0.6-2.1-0.8c-2-0.8-4.1-1.5-5.9-2.1
		c-0.7-0.3-1.4-0.5-2-0.7c-2.1-0.7-4.3-1.4-6.4-2.1c-2.9-0.9-5.7-1.8-8.6-2.7c-10.3-3.1-20.9-5.7-31.6-8c-0.1,0-0.2,0-0.2,0
		c-2.5-0.5-5.1-1-7.7-1.5c-2.3-0.4-4.5-0.8-6.8-1.2c-6.2-1-12.4-1.9-18.3-2.5c-2.4-0.3-4.8-0.5-7.3-0.7c-2.5-0.2-5.1-0.5-7.7-0.6
		c-0.1,0-0.4,0-0.5,0l-1.5-0.1c-4.9-0.3-9.9-0.6-14.9-0.7c-7.4-0.3-15.1-0.3-21.4-0.1c-2.3-6.2-5-12.3-8.2-18.3
		c-3.2-6-6.8-11.8-10.6-17c-0.4-0.6-0.8-1.1-1.1-1.6c-0.5-0.7-1-1.3-1.5-1.9c-1-1.4-2.1-2.7-3.1-4c-1.1-1.4-2.3-2.8-3.5-4.1
		c-1.2-1.4-2.5-2.8-3.9-4.3l-0.3-0.3c-0.5-0.5-1-1.1-1.5-1.5c-1.3-1.4-2.6-2.7-3.9-3.9c-1.5-1.4-3-2.8-4.5-4.1c-1.2-1-2.3-2-3.3-2.7
		c-1.1-1-2.2-1.9-3.1-2.5c-1.6-1.3-3.2-2.5-4.7-3.6c-1.8-1.3-3.7-2.6-5.6-3.8c-1.3-0.8-2.5-1.7-3.9-2.5c-1.3-0.8-2.6-1.5-3.8-2.3
		c-1.8-1.1-3.7-2.1-5.6-3.1c-1.9-1-3.8-1.9-5.8-2.8c-4.7-2.2-9.6-4.2-14.7-5.9c-0.6-0.9-1.1-1.9-1.6-2.8c-0.1-0.2-0.2-0.4-0.3-0.6
		c-0.1-0.2-0.1-0.3-0.2-0.4c-0.5-0.9-0.9-1.8-1.4-2.9c-0.8-1.6-1.5-3.2-2.1-4.9c0-0.1-0.1-0.2-0.1-0.4c-0.3-0.7-0.6-1.5-0.9-2.4
		c-0.6-1.6-1.1-3.3-1.6-5.1c-0.3-0.9-0.5-1.7-0.7-2.7c-0.7-2.9-1.3-5.5-1.7-8.1c-0.3-1.8-1.5-3.3-3.1-4c-1.7-0.7-3.6-0.4-5,0.7
		c-1,0.8-2.1,1.6-3.2,2.5l-2,1.7c-0.7,0.6-1.3,1.2-2,1.8l-0.7,0.6c-0.7,0.7-1.4,1.4-2,2c-1.4,1.4-2.9,3-4.6,4.9
		c-0.8,0.9-1.6,1.9-2.5,3c-0.1,0.1-0.2,0.2-0.3,0.4c-0.8,1-1.6,2-2.3,3c-0.5,0.7-1,1.3-1.3,1.8c-0.7,0.9-1.3,1.8-1.8,2.7
		c-0.8,1.2-1.5,2.4-2.2,3.5c-1.6-5.9-2.6-11.9-2.9-18.1c-0.1-2.2-1.6-4.1-3.8-4.7c-2.1-0.6-4.4,0.3-5.6,2.2c-1,1.6-2,3.1-3.1,4.7
		c-0.8,1.2-1.7,2.3-2.6,3.5c-0.1,0.1-0.1,0.2-0.2,0.3c-0.1,0.1-0.1,0.1-0.2,0.2c-3.2,4.3-6.8,8.5-10.7,12.5c-3,3.1-5.8,5.7-8.6,8.2
		c-12.8,11.3-27.3,20-43.1,26c-6.5,2.5-13.4,4.5-20.4,6c-1.6,0.3-2.9,1.4-3.6,2.8c-0.7,1.4-0.7,3.1,0.1,4.5
		c3.5,6.9,6.8,12.9,10.1,18.4c2.3,4.1,4.9,8.3,8.2,13.4c2.5,4,5.2,8,8,11.9c0.8,1.2,2.1,2,3.6,2.1c11.6,1.3,23.4,2.1,35.1,2.3v51.5
		c0,0.2,0,0.3,0,0.5c0,1.1,0,2.1,0,3.2c0,7.2,0.5,14.3,1.5,21.3c0.4,2.4,0.7,4.8,1.2,7.2c0.4,1.7,0.7,3.4,1.1,5.1
		c2.4,10.5,5.9,20.7,10.4,30.2c0.3,0.8,0.7,1.5,1,2.2c15.2,31.1,40.8,56.3,72.2,70.9c1.2,0.6,2.4,1.1,3.6,1.6
		c0.1,0.8,0.3,1.7,0.5,2.5c0,0.3,0.1,0.6,0.2,0.9c0.3,1.6,0.6,3.2,1,4.8l0.4,1.9c0.3,1.4,0.6,2.8,0.9,4.2c0.9,4.1,1.9,8.3,3,12.3
		c0.5,2.1,1.1,4.1,1.6,6.1l0.2,0.7c0.2,0.7,0.4,1.4,0.5,1.9c0.4,1.4,0.8,2.8,1.2,4.2l0.9,2.9c1,3.5,2.2,7,3.4,10.5
		c0.1,0.3,0.2,0.6,0.3,0.8c0.1,0.2,0.2,0.5,0.3,0.7c0.5,1.5,1,3,1.5,4.3c0.1,0.2,0.1,0.4,0.3,0.7c0.1,0.3,0.2,0.6,0.3,0.8l0.2,0.5
		c0.9,2.5,1.9,5,2.9,7.5l1.2,3.1c-7,6.3-15,11.4-23.7,15.1c-1.3,0.5-2.3,1.6-2.8,2.9c-0.5,1.3-0.4,2.8,0.2,4c4,8,9.2,15.5,15.4,22.3
		c1,1,2.3,1.6,3.7,1.6h50.8c2.1,0,4-1.3,4.7-3.2c0.1-0.4,0.2-0.7,0.3-1.1c4-13.6,6-27.8,6-42c0-1.5,0-2.9-0.1-4.4c0,0,0-0.3,0-0.4
		c-0.6-18.4-4.4-36.2-11.4-53c0.6-0.3,1.1-0.6,1.7-0.9l1.1-0.6c3.9-2,8-4,12.4-6c8.9-4.1,18-7.9,27.1-11.3l3.6-1.3
		c2.7-1,5.4-1.9,8.1-2.8c1.7-0.6,3.4-1.1,5.1-1.7l2.7-0.8c0.1,0,0.2-0.1,0.3-0.1c4-1.3,8.1-2.4,12.6-3.6c4.1-1.1,8.5-2.2,12.9-3.2
		c0.2,0,0.3-0.1,0.5-0.1c12.8-2.9,26-5.2,39.1-6.7c14-1.7,28.5-2.5,43.1-2.5c1.2,0,2.3,0,3.5,0c3.5,4.5,7.3,9,11.2,13.5
		c1.3,1.5,2.6,3.1,4,4.5l2.2,2.4c1.4,1.5,2.8,3.1,4.2,4.5c1.6,1.7,3.2,3.4,4.8,5c0.7,0.7,1.4,1.4,2.2,2.2c0,0,0.2,0.2,0.2,0.2
		c0.9,0.9,1.8,1.7,2.5,2.5c0.8,0.9,1.6,1.7,2.6,2.6c0.2,0.2,0.4,0.4,0.6,0.5c0.4,0.5,0.9,0.9,1.4,1.3l0.3,0.3
		c0.4,0.4,0.9,0.8,1.1,1.1c1.4,1.4,2.9,2.8,4.3,4c1.2,1.1,2.3,2.1,3.6,3.2c1.7,1.6,3.4,3,5.1,4.5c0.5,0.5,1,0.9,1.6,1.4l0.4,0.4
		c0.6,0.5,1.1,1,1.7,1.4c2.3,1.9,4.5,3.8,6.8,5.6c10.2,8.2,20.9,15.8,31.7,22.8c-0.8,6.5-2,13-3.7,19.4c-6.1,4.9-12.8,8.8-19.9,11.9
		c-1.3,0.5-2.3,1.6-2.8,2.9c-0.5,1.3-0.4,2.8,0.2,4c3,6,6.7,11.8,10.9,17c1.3,1.7,2.7,3.4,4.5,5.3c1,1,2.3,1.6,3.7,1.6h50.8
		c2.3,0,4.2-1.5,4.9-3.6c3.5-11.9,5.6-24.3,6-36.9c0.1-1.9,0.1-3.9,0.1-5.8c0-9.2-0.8-18.3-2.5-27.2c1.9,0.4,3.9,0.7,5.9,0.7
		c1.9,0,3.8-0.2,5.6-0.6c2.4-0.5,4.7-1.3,6.7-2.4c9.2-4.7,15-14,15-24.4C786.1,481.2,785.6,478.3,784.7,475.4z M284.5,263.3
		c-12.3,0-24.6-0.7-36.8-2c-2.2-3.2-4.3-6.4-6.4-9.6c-3.2-4.9-5.7-9.1-8-13c-0.9-1.5-1.8-3-2.6-4.6c3.2-3.7,8-9.1,12.5-12.9
		c16.4-6.4,31.6-15.6,44.9-27.3c1.6-1.4,3.2-2.8,4.8-4.4c8.2,6.3,17.3,11.2,27.1,14.5c4.4,10.1,10.5,19.3,18.2,27.3
		c-3.3,24-16.4,45.9-36.1,60.2c-3.9,2.9-8.1,5.4-12.5,7.6v-30.5C289.6,265.6,287.3,263.3,284.5,263.3z M432.3,469.7l-1.1,0.6
		c-2,1-4,2.1-6,3.2c-2.3,1.3-3.2,4.1-2.2,6.5c7.7,16.9,11.8,34.9,12.4,53.7c0,1.4,0.1,2.8,0.1,4.2c0,12.3-1.6,24.4-4.7,36.2h-44.7
		c-3.7-4.2-7-8.8-9.8-13.6c8.9-4.4,17.1-10.2,24.3-17.1c1.5-1.5,1.9-3.7,1.1-5.6c-0.3-0.7-0.6-1.5-0.9-2.3l-1.5-3.8
		c-0.9-2.5-1.9-4.9-2.7-7.2c-0.1-0.3-0.2-0.6-0.3-0.8l-0.2-0.4c0,0-0.3-0.7-0.3-0.7c-0.5-1.4-1-2.9-1.5-4.3
		c-0.1-0.3-0.1-0.3-0.2-0.5c0-0.1-0.1-0.2-0.1-0.4c0-0.1-0.1-0.3-0.1-0.4c-1.2-3.4-2.3-6.9-3.4-10.5l-0.9-2.8
		c-0.4-1.3-0.8-2.6-1.2-4.2c-0.2-0.5-0.3-1-0.4-1.6l-0.2-0.9c-0.6-2-1.1-3.9-1.6-5.9c-1-3.9-2-8-2.9-12c-0.3-1.3-0.6-2.7-0.9-4
		l-0.4-2c-0.4-1.6-0.6-3.1-0.9-4.8c0-0.1,0-0.1,0-0.2c0-0.2-0.1-0.3-0.1-0.5c-0.2-0.7-0.3-1.3-0.4-2c0-0.2,0-0.3-0.1-0.5
		c-0.2-0.8-0.3-1.7-0.5-2.6c-0.3-1.7-1.5-3.2-3.1-3.8c-1.9-0.8-3.8-1.6-5.7-2.5c-29.3-13.6-53.2-37.1-67.3-66.2
		c-0.3-0.5-0.5-1-0.8-1.8c-4.2-9-7.5-18.6-9.7-28.3c16.1-5,31-12.5,44.6-22.6c7.3,7,15.2,13.6,23.5,19.7
		c-4.8,9.5-8.9,19.3-12.2,29.2c-0.3,0.8,0.1,1.7,0.9,2.1c37.3,16.7,69.4,43,93.3,76.2C439.4,466.1,435.8,467.9,432.3,469.7z
		 M745.1,543.3c-0.4,10.5-1.9,20.8-4.6,30.8h-44.7c-0.9-1-1.7-2-2.5-3c-2.7-3.4-5.2-6.9-7.3-10.6c6.6-3.3,12.8-7.3,18.5-12v0
		c0.8-0.7,1.4-1.6,1.7-2.6c2.3-8.5,3.9-17.1,4.7-25.8c0.2-1.9-0.7-3.8-2.4-4.8c-11.5-7.2-22.7-15.2-33.5-23.8
		c-2.3-1.8-4.5-3.6-6.7-5.5c-0.1-0.1-0.2-0.1-0.3-0.2c-0.4-0.3-0.9-0.7-1.3-1.1l-0.6-0.5c-0.4-0.4-0.8-0.7-1.2-1.1
		c-0.1-0.1-0.2-0.2-0.3-0.2c-1.6-1.3-3.2-2.7-5-4.4c-1.1-1-2.3-2-3.5-3.1c-1.3-1.1-2.6-2.3-4-3.8c-0.3-0.3-0.6-0.6-1.1-1l-0.5-0.4
		c-0.4-0.4-0.8-0.7-1.1-1.1c-0.2-0.2-0.4-0.4-0.6-0.6l-0.4-0.4c-0.7-0.6-1.3-1.2-2.1-2.1c-0.9-0.8-1.7-1.6-2.5-2.5l-0.3-0.3
		c-0.7-0.7-1.3-1.3-2-2c-1.6-1.6-3.1-3.2-4.7-4.9c-1.3-1.4-2.7-2.9-4.1-4.4l-2.2-2.4c-1.3-1.4-2.6-2.9-3.8-4.4
		c-4.2-4.7-8.1-9.5-11.8-14.3c0-0.1-0.3-0.3-0.3-0.4l-0.4-0.5c-0.9-1.1-2.3-1.7-3.7-1.8c-2-0.1-4.1-0.1-6.1-0.1
		c-15,0-30,0.9-44.3,2.6c-13.6,1.6-27.3,3.9-40.6,7c-0.2,0-0.3,0.1-0.5,0.1c-4.4,1-8.8,2.1-12.9,3.2c-4,1.1-7.8,2.2-11.5,3.3
		c1.2-9.6,3.4-19.1,6.6-28.3c43.9-5,86.1-17.6,125.5-37.5c26.1,57.6,66.8,107.9,117.7,145.9c0.4,4.4,0.7,8.9,0.7,13.3
		C745.2,539.7,745.1,541.5,745.1,543.3z M770.3,496.7c-19.4-8.9-32.2-28.5-32.2-50.1c0-2.5,0.2-4.9,0.5-7.4
		c7.8,9,16.1,17.6,24.8,25.9c2.3,2.2,4.7,4.4,7.1,6.5c2.1,1.9,3.7,4.4,4.5,7.1c0.6,1.8,0.9,3.6,0.9,5.4
		C775.9,489,773.8,493.5,770.3,496.7z"/>
</g>
</svg>
