<?xml version="1.0" encoding="utf-8"?>
<!-- Generator: Adobe Illustrator 25.3.1, SVG Export Plug-In . SVG Version: 6.00 Build 0)  -->
<svg version="1.1" id="Ebene_1" xmlns="http://www.w3.org/2000/svg" xmlns:xlink="http://www.w3.org/1999/xlink" x="0px" y="0px"
	 viewBox="0 0 1000 1000" style="enable-background:new 0 0 1000 1000;" xml:space="preserve">
<style type="text/css">
	.st0{fill:#44B2E8;}
	.st1{fill:#FFFFFF;}
	.st2{fill:none;}
	.st3{fill:#DEDEDD;}
</style>
<path class="st0" d="M669.2,700.2c-44.2,0-80.2,36-80.2,80.2s36,80.2,80.2,80.2c44.2,0,80.2-36,80.2-80.2S713.4,700.2,669.2,700.2z
	 M724.5,780.4c0,30.5-24.8,55.3-55.3,55.3c-30.5,0-55.3-24.8-55.3-55.3c0-30.5,24.8-55.3,55.3-55.3
	C699.7,725,724.5,749.9,724.5,780.4z"/>
<path class="st0" d="M476.4,700.2c-44.2,0-80.2,36-80.2,80.2s36,80.2,80.2,80.2s80.2-36,80.2-80.2S520.6,700.2,476.4,700.2z
	 M531.7,780.4c0,30.5-24.8,55.3-55.3,55.3S421,810.9,421,780.4c0-30.5,24.8-55.3,55.3-55.3S531.7,749.9,531.7,780.4z"/>
<path class="st0" d="M244.6,698.9c-0.3-0.5-0.9-0.9-1.5-0.9h-23.9c-0.6,0-1.2,0.3-1.5,0.9l-40.8,73.5L136,698.9
	c-0.3-0.6-0.9-0.9-1.5-0.9h-23.9c-0.6,0-1.2,0.3-1.5,0.9c-0.3,0.5-0.3,1.2,0,1.7l55.6,100.1v58.1c0,1,0.8,1.7,1.7,1.7h20.9
	c1,0,1.7-0.8,1.7-1.7v-58.1l55.6-100.1C244.9,700,244.9,699.4,244.6,698.9z"/>
<path class="st0" d="M326.6,699.2c-0.2-0.7-0.9-1.2-1.7-1.2h-24.7c-0.7,0-1.4,0.5-1.6,1.2l-54.7,159c-0.2,0.5-0.1,1.1,0.2,1.6
	c0.3,0.5,0.9,0.7,1.4,0.7h22.1c0.7,0,1.4-0.5,1.6-1.2l13.8-40.1h58.6l13.7,40.1c0.2,0.7,0.9,1.2,1.7,1.2h22.1c0.6,0,1.1-0.3,1.4-0.7
	c0.3-0.5,0.4-1,0.2-1.6L326.6,699.2z M333.5,794.8h-41.9l21-61.1L333.5,794.8z"/>
<path class="st0" d="M908.5,857.2l-69.5-89l64.9-67.2c0.5-0.5,0.6-1.2,0.4-1.9c-0.3-0.6-0.9-1.1-1.6-1.1h-29.1
	c-0.5,0-0.9,0.2-1.3,0.5l-61.1,63.2v-62c0-1-0.8-1.7-1.7-1.7h-20.9c-1,0-1.7,0.8-1.7,1.7v158.5c0,1,0.8,1.7,1.7,1.7h20.9
	c1,0,1.7-0.8,1.7-1.7v-61.4l10.6-11l57.4,73.4c0.3,0.4,0.8,0.7,1.4,0.7h26.6c0.7,0,1.3-0.4,1.6-1C909,858.4,908.9,857.7,908.5,857.2
	z"/>
<path class="st1" d="M441.2,478.6c4.1-2.1,8.2-4.1,12.7-6.2c9.1-4.2,18.4-8.1,27.8-11.6l3.7-1.3c2.8-1,5.6-2,8.4-2.9
	c1.8-0.6,3.5-1.2,5.3-1.7l3-0.9c0.1,0,0.2-0.1,0.3-0.1c4-1.3,8.2-2.5,12.7-3.7c4.1-1.1,8.5-2.2,12.9-3.2c0.1,0,0.3-0.1,0.5-0.1
	c13.3-3.1,27-5.4,40.6-7c14.4-1.7,29.3-2.6,44.3-2.6c2.1,0,4.1,0,6.1,0.1c1.4,0,2.8,0.7,3.7,1.8l0.4,0.5c0,0.1,0.3,0.3,0.3,0.4
	c3.7,4.7,7.7,9.5,11.8,14.3c1.3,1.5,2.6,3,3.8,4.4l2.2,2.4c1.4,1.5,2.7,3,4.1,4.4c1.6,1.7,3.1,3.3,4.7,4.9c0.7,0.7,1.4,1.4,2,2
	l0.3,0.3c0.8,0.8,1.7,1.7,2.5,2.5c0.8,0.8,1.4,1.5,2.1,2.1l0.4,0.4c0.2,0.2,0.4,0.4,0.6,0.6c0.4,0.4,0.7,0.7,1.1,1.1l0.5,0.4
	c0.4,0.4,0.7,0.7,1.1,1c1.5,1.4,2.7,2.6,4,3.8c1.2,1.1,2.3,2.1,3.5,3.1c1.8,1.6,3.4,3,5,4.4c0.1,0.1,0.2,0.2,0.3,0.2
	c0.4,0.4,0.8,0.7,1.2,1.1l0.6,0.5c0.5,0.4,0.9,0.8,1.3,1.1c0.1,0.1,0.2,0.1,0.3,0.2c2.2,1.9,4.4,3.7,6.7,5.5
	c10.8,8.6,22,16.6,33.5,23.8c1.6,1,2.5,2.9,2.4,4.8c-0.8,8.6-2.4,17.3-4.7,25.8c-0.3,1-0.9,1.9-1.7,2.6v0c-5.7,4.7-12,8.8-18.5,12
	c2.1,3.7,4.6,7.2,7.3,10.6c0.8,1,1.6,2,2.5,3h44.7c2.7-10,4.2-20.3,4.6-30.8c0.1-1.8,0.1-3.6,0.1-5.4c0-11.7-1.4-23.3-4.3-34.5
	c0,0,0,0,0,0c-0.6-2.3-1.2-4.6-2-7c-2-1.6-3.8-2.9-5.4-4.3c-1-0.8-2-1.7-3.1-2.6c-13.1-11.6-23.9-25-32.3-40
	c-0.2-0.3-0.4-0.6-0.5-0.9c-4.6-8.3-8.4-17.2-11.3-26.2c-2.2-6.7-3.8-13.6-5-20.6c-0.5-2.7-0.9-5.3-1.1-7.8c-0.7-5.7-1-11.7-1-17.7
	c0-7.8,0.6-15.5,1.8-23.1c-1.6-1.2-3.2-2.3-4.8-3.4c-1.8-1.3-3.6-2.5-5.4-3.7c-8.5-5.7-17.2-11.1-25.9-16l-1.1-0.6
	c-2.6-1.5-5.2-2.8-7.8-4.2c-2.6-1.4-5.3-2.7-7.9-4c-0.8-0.4-1.6-0.8-2.4-1.1c-0.1,0-0.2-0.1-0.3-0.2c-1.8-0.9-3.6-1.8-5.4-2.6
	c-1.3-0.7-2.5-1.2-3.7-1.7c-1-0.5-1.9-0.9-2.8-1.2c-0.1-0.1-0.3-0.1-0.4-0.2c-1.7-0.8-3.3-1.5-5-2.2c-2.5-1-4.9-2.1-7.4-3
	c-2.1-0.9-4.1-1.6-6.2-2.4c-0.7-0.3-1.2-0.5-1.7-0.6c-2.2-0.8-4.1-1.5-6.1-2.2c-0.7-0.3-1.3-0.5-1.8-0.6c-2.1-0.7-4.2-1.4-6.3-2.1
	c-2.8-0.9-5.6-1.8-8.4-2.6c-9.9-3-20.2-5.6-30.6-7.7c-0.1,0-0.2,0-0.2,0c-2.5-0.5-5.1-1-7.6-1.4c-2.3-0.4-4.5-0.8-6.7-1.2
	c-6.1-1-12.1-1.8-17.9-2.5c-2.3-0.3-4.6-0.5-6.9-0.7c-2.6-0.2-5.1-0.5-7.5-0.6c-0.1,0-0.4,0-0.4,0l-1.6-0.1
	c-4.8-0.3-9.6-0.6-14.5-0.7c-3.7-0.1-7.4-0.2-11-0.2c-5.1,0-9.4,0.1-13.4,0.3c-2.2,0.1-4.3-1.3-5-3.5c-2.3-6.9-5.3-13.8-8.8-20.3
	c-3-5.6-6.4-11-10-16.1c-0.4-0.6-0.6-0.9-0.8-1.2c-0.5-0.7-0.9-1.2-1.3-1.7c-0.1-0.1-0.1-0.2-0.2-0.3c-0.9-1.3-1.9-2.5-2.9-3.7
	c-1.1-1.3-2.2-2.6-3.2-3.8c-1.1-1.3-2.2-2.5-3.5-3.8l-0.2-0.2c0,0-0.2-0.2-0.2-0.3c-0.4-0.5-0.9-0.9-1.3-1.4
	c-1.2-1.3-2.4-2.5-3.6-3.6c-1.4-1.4-2.9-2.6-4.3-3.9c-1-0.9-2-1.7-3.1-2.6c-1.1-0.9-1.9-1.6-2.8-2.2c-1.6-1.3-3-2.3-4.5-3.4
	c-1.8-1.3-3.5-2.5-5.3-3.6c-1.2-0.8-2.4-1.6-3.6-2.3c-1.1-0.7-2.3-1.4-3.6-2.1c-1.7-1-3.5-2-5.3-2.9c-1.8-0.9-3.5-1.8-5.4-2.7
	c-4.9-2.3-10.1-4.4-15.4-6.1c-1.2-0.4-2.2-1.2-2.8-2.3l-0.4-0.7c-0.1-0.1-0.1-0.2-0.2-0.3c0,0-0.1-0.1-0.1-0.2
	c-0.8-1.3-1.5-2.5-2-3.6c-0.2-0.3-0.4-0.7-0.6-1.1c-0.6-1.1-1.1-2.2-1.6-3.3c-0.8-1.7-1.7-3.6-2.4-5.5c-0.4-1-0.8-2-1.2-3
	c-0.7-1.8-1.3-3.7-1.8-5.5c-0.3-0.9-0.6-2.1-0.9-3.3c0-0.1-0.1-0.2-0.1-0.3c0,0,0,0,0,0l-0.7,0.6c-0.5,0.5-1.1,1.1-1.6,1.6
	c-1.4,1.4-2.7,2.7-4.2,4.5c-0.8,0.8-1.4,1.7-2.1,2.5c-0.1,0.2-0.2,0.3-0.4,0.5c-0.7,0.8-1.3,1.6-1.9,2.4c-0.5,0.6-0.9,1.2-1.2,1.8
	c-0.7,0.9-1.2,1.7-1.7,2.5c-0.8,1.2-1.5,2.3-2.1,3.5c-1.8,3.1-3.4,6.3-4.8,9.5c-0.8,1.9-2.6,3.1-4.7,3.1h0c-2,0-3.9-1.2-4.7-3.1
	c-1.5-3.6-2.8-7.3-3.8-11c-0.8-2.7-1.5-5.4-2-8.2c-3.2,4-6.6,8-10.2,11.8c-3.2,3.3-6.2,6.2-9.2,8.8c-13.3,11.7-28.5,20.9-44.9,27.3
	c-4.5,3.8-9.4,9.2-12.5,12.9c0.9,1.6,1.8,3.1,2.6,4.6c2.3,4,4.8,8.1,8,13c2.1,3.2,4.2,6.5,6.4,9.6c12.2,1.3,24.5,2,36.8,2
	c2.8,0,5.1,2.3,5.1,5.1v56c0,0.2,0,0.5,0,0.7c0,1.2,0,2.4,0,3.5c0,6.7,0.5,13.4,1.4,19.8c0.3,2.2,0.7,4.4,1.1,6.6
	c0.3,1.6,0.7,3.2,1,4.9c2.2,9.8,5.5,19.3,9.8,28.3c0.2,0.5,0.4,0.8,0.5,1.2C363.8,410.1,408.9,438.9,441.2,478.6z"/>
<path class="st0" d="M310,226.1c0,4.7-3.8,8.4-8.5,8.4c-4.7,0-8.4-3.8-8.4-8.4c0-4.7,3.8-8.5,8.4-8.5
	C306.1,217.6,310,221.4,310,226.1z"/>
<path class="st2" d="M754,546.9c0-11.7-1.4-23.3-4.3-34.5c0,0,0,0,0,0c-0.6-2.3-1.2-4.6-2-7c-2-1.6-3.8-2.9-5.4-4.3
	c-1-0.8-2-1.7-3.1-2.6c-13.1-11.6-23.9-25-32.3-40c-0.2-0.3-0.4-0.6-0.5-0.9c-4.6-8.3-8.4-17.2-11.3-26.2c-2.2-6.7-3.8-13.6-5-20.6
	c-0.5-2.7-0.9-5.3-1.1-7.8c-0.7-5.7-1-11.7-1-17.7c0-7.8,0.6-15.5,1.8-23.1c-1.6-1.2-3.2-2.3-4.8-3.4c-1.8-1.3-3.6-2.5-5.4-3.7
	c-8.5-5.7-17.2-11.1-25.9-16l-1.1-0.6c-2.6-1.5-5.2-2.8-7.8-4.2c-2.6-1.4-5.3-2.7-7.9-4c-0.8-0.4-1.6-0.8-2.4-1.1
	c-0.1,0-0.2-0.1-0.3-0.2c-1.8-0.9-3.6-1.8-5.4-2.6c-1.3-0.7-2.5-1.2-3.7-1.7c-1-0.5-1.9-0.9-2.8-1.2c-0.1-0.1-0.3-0.1-0.4-0.2
	c-1.7-0.8-3.3-1.5-5-2.2c-2.5-1-4.9-2.1-7.4-3c-2.1-0.9-4.1-1.6-6.2-2.4c-0.7-0.3-1.2-0.5-1.7-0.6c-2.2-0.8-4.1-1.5-6.1-2.2
	c-0.7-0.3-1.3-0.5-1.8-0.6c-2.1-0.7-4.2-1.4-6.3-2.1c-2.8-0.9-5.6-1.8-8.4-2.6c-9.9-3-20.2-5.6-30.6-7.7c-0.1,0-0.2,0-0.2,0
	c-2.5-0.5-5.1-1-7.6-1.4c-2.3-0.4-4.5-0.8-6.7-1.2c-6.1-1-12.1-1.8-17.9-2.5c-2.3-0.3-4.6-0.5-6.9-0.7c-2.6-0.2-5.1-0.5-7.5-0.6
	c-0.1,0-0.4,0-0.4,0l-1.6-0.1c-4.8-0.3-9.6-0.6-14.5-0.7c-3.7-0.1-7.4-0.2-11-0.2c-5.1,0-9.4,0.1-13.4,0.3c-2.2,0.1-4.3-1.3-5-3.5
	c-2.3-6.9-5.3-13.8-8.8-20.3c-3-5.6-6.4-11-10-16.1c-0.4-0.6-0.6-0.9-0.8-1.2c-0.5-0.7-0.9-1.2-1.3-1.7c-0.1-0.1-0.1-0.2-0.2-0.3
	c-0.9-1.3-1.9-2.5-2.9-3.7c-1.1-1.3-2.2-2.6-3.2-3.8c-1.1-1.3-2.2-2.5-3.5-3.8l-0.2-0.2c0,0-0.2-0.2-0.2-0.3
	c-0.4-0.5-0.9-0.9-1.3-1.4c-1.2-1.3-2.4-2.5-3.6-3.6c-1.4-1.4-2.9-2.6-4.3-3.9c-1-0.9-2-1.7-3.1-2.6c-1.1-0.9-1.9-1.6-2.8-2.2
	c-1.6-1.3-3-2.3-4.5-3.4c-1.8-1.3-3.5-2.5-5.3-3.6c-1.2-0.8-2.4-1.6-3.6-2.3c-1.1-0.7-2.3-1.4-3.6-2.1c-1.7-1-3.5-2-5.3-2.9
	c-1.8-0.9-3.5-1.8-5.4-2.7c-4.9-2.3-10.1-4.4-15.4-6.1c-1.2-0.4-2.2-1.2-2.8-2.3l-0.4-0.7c-0.1-0.1-0.1-0.2-0.2-0.3
	c0,0-0.1-0.1-0.1-0.2c-0.8-1.3-1.5-2.5-2-3.6c-0.2-0.3-0.4-0.7-0.6-1.1c-0.6-1.1-1.1-2.2-1.6-3.3c-0.8-1.7-1.7-3.6-2.4-5.5
	c-0.4-1-0.8-2-1.2-3c-0.7-1.8-1.3-3.7-1.8-5.5c-0.3-0.9-0.6-2.1-0.9-3.3c0-0.1-0.1-0.2-0.1-0.3c0,0,0,0,0,0l-0.7,0.6
	c-0.5,0.5-1.1,1.1-1.6,1.6c-1.4,1.4-2.7,2.7-4.2,4.5c-0.8,0.8-1.4,1.7-2.1,2.5c-0.1,0.2-0.2,0.3-0.4,0.5c-0.7,0.8-1.3,1.6-1.9,2.4
	c-0.5,0.6-0.9,1.2-1.2,1.8c-0.7,0.9-1.2,1.7-1.7,2.5c-0.8,1.2-1.5,2.3-2.1,3.5c-1.8,3.1-3.4,6.3-4.8,9.5c-0.8,1.9-2.6,3.1-4.7,3.1h0
	c-2,0-3.9-1.2-4.7-3.1c-1.5-3.6-2.8-7.3-3.8-11c-0.8-2.7-1.5-5.4-2-8.2c-3.2,4-6.6,8-10.2,11.8c-3.2,3.3-6.2,6.2-9.2,8.8
	c-13.3,11.7-28.5,20.9-44.9,27.3c-4.5,3.8-9.4,9.2-12.5,12.9c0.9,1.6,1.8,3.1,2.6,4.6c2.3,4,4.8,8.1,8,13c2.1,3.2,4.2,6.5,6.4,9.6
	c12.2,1.3,24.5,2,36.8,2c2.8,0,5.1,2.3,5.1,5.1v56c0,0.2,0,0.5,0,0.7c0,1.2,0,2.4,0,3.5c0,6.7,0.5,13.4,1.4,19.8
	c0.3,2.2,0.7,4.4,1.1,6.6c0.3,1.6,0.7,3.2,1,4.9c2.2,9.8,5.5,19.3,9.8,28.3c0.3,0.7,0.6,1.3,0.8,1.8c14.2,29.1,38.1,52.6,67.3,66.2
	c1.9,0.9,3.8,1.7,5.7,2.5c1.6,0.7,2.8,2.1,3.1,3.8c0.2,0.9,0.3,1.7,0.5,2.6c0,0.2,0.1,0.3,0.1,0.5c0.1,0.7,0.2,1.3,0.4,2
	c0,0.2,0.1,0.3,0.1,0.5c0,0.1,0,0.1,0,0.2c0.3,1.6,0.6,3.2,0.9,4.8l0.4,2c0.3,1.3,0.6,2.7,0.9,4c0.9,4.1,1.9,8.1,2.9,12
	c0.5,2,1,3.9,1.6,5.9l0.2,0.9c0.1,0.5,0.3,1,0.4,1.6c0.4,1.5,0.8,2.8,1.2,4.2l0.9,2.8c1.1,3.6,2.3,7.1,3.4,10.5
	c0,0.1,0.1,0.3,0.1,0.4c0,0.1,0.1,0.3,0.1,0.4c0.1,0.2,0.1,0.3,0.2,0.5c0.5,1.4,1,2.9,1.5,4.3c0,0,0.3,0.7,0.3,0.7l0.2,0.4
	c0.1,0.3,0.2,0.5,0.3,0.8c0.9,2.3,1.8,4.8,2.7,7.2l1.5,3.8c0.3,0.8,0.6,1.6,0.9,2.3c0.8,1.9,0.4,4.2-1.1,5.6
	c-7.2,7-15.3,12.7-24.3,17.1c2.8,4.8,6.1,9.4,9.8,13.6h44.7c3.1-11.8,4.7-23.9,4.7-36.2c0-1.4,0-2.8-0.1-4.2
	c-0.6-18.9-4.8-36.8-12.4-53.7c-1.1-2.4-0.2-5.3,2.2-6.5c2-1.1,4-2.1,6-3.2l1.1-0.6c4.1-2.1,8.3-4.2,12.8-6.3
	c9.1-4.2,18.4-8.1,27.8-11.6l3.7-1.3c2.8-1,5.6-2,8.4-2.9c1-0.3,2-0.7,3-1v-13.3c45.7-2.9,89.2-13.9,128.9-31.8
	c19.9,39.7,46.7,75.3,78.8,105.3c4.3,3,8.6,5.8,13,8.6c1.6,1,2.5,2.9,2.4,4.8c0,0,0,0.1,0,0.1c10.8,9.1,22.2,17.5,34,25.3
	c0-0.8,0.1-1.5,0.2-2.3C754,550.5,754,548.7,754,546.9z"/>
<path d="M717.4,524.3c-4.4-2.7-8.7-5.6-13-8.6c5,4.6,10.1,9.1,15.3,13.5c0,0,0-0.1,0-0.1C720,527.2,719.1,525.3,717.4,524.3z"/>
<g>
	<path class="st3" d="M625.7,410.4c-39.8,17.9-83.2,28.9-128.9,31.8v13.3c0.8-0.2,1.5-0.5,2.3-0.7l3-0.9c0.1,0,0.2-0.1,0.3-0.1
		c4-1.3,8.2-2.5,12.7-3.7c4.1-1.1,8.5-2.2,12.9-3.2c0.1,0,0.3-0.1,0.5-0.1c13.3-3.1,27-5.4,40.6-7c14.4-1.7,29.3-2.6,44.3-2.6
		c2.1,0,4.1,0,6.1,0.1c1.4,0,2.8,0.7,3.7,1.8l0.4,0.5c0,0.1,0.3,0.3,0.3,0.4c3.7,4.7,7.7,9.5,11.8,14.3c1.3,1.5,2.6,3,3.8,4.4
		l2.2,2.4c1.4,1.5,2.7,3,4.1,4.4c1.6,1.7,3.1,3.3,4.7,4.9c0.7,0.7,1.4,1.4,2,2l0.3,0.3c0.8,0.8,1.7,1.7,2.5,2.5
		c0.8,0.8,1.4,1.5,2.1,2.1l0.4,0.4c0.2,0.2,0.4,0.4,0.6,0.6c0.4,0.4,0.7,0.7,1.1,1.1l0.5,0.4c0.4,0.4,0.7,0.7,1.1,1
		c1.5,1.4,2.7,2.6,4,3.8c1.2,1.1,2.3,2.1,3.5,3.1c1.8,1.6,3.4,3,5,4.4c0.1,0.1,0.2,0.2,0.3,0.2c0.4,0.4,0.8,0.7,1.2,1.1l0.6,0.5
		c0.5,0.4,0.9,0.8,1.3,1.1c0.1,0.1,0.2,0.1,0.3,0.2c2.2,1.9,4.4,3.7,6.7,5.5c6.7,5.3,13.5,10.4,20.5,15.2
		C672.4,485.7,645.6,450.1,625.7,410.4z"/>
	<path class="st3" d="M431.9,488.9c-1.1-2.4-0.2-5.3,2.2-6.5c2-1.1,4-2.1,6-3.2l0.9-0.5c-32.2-39.4-77.1-68-128.4-79.8
		c14.2,29.1,38.1,52.5,67.3,66.1c1.9,0.9,3.8,1.7,5.7,2.5c1.6,0.7,2.8,2.1,3.1,3.8c0.2,0.9,0.3,1.7,0.5,2.6c0,0.2,0.1,0.3,0.1,0.5
		c0.1,0.7,0.2,1.3,0.4,2c0,0.2,0.1,0.3,0.1,0.5c0,0.1,0,0.1,0,0.2c0.3,1.6,0.6,3.2,0.9,4.8l0.4,2c0.3,1.3,0.6,2.7,0.9,4
		c0.9,4.1,1.9,8.1,2.9,12c0.5,2,1,3.9,1.6,5.9l0.2,0.9c0.1,0.5,0.3,1,0.4,1.6c0.4,1.5,0.8,2.8,1.2,4.2l0.9,2.8
		c1.1,3.6,2.3,7.1,3.4,10.5c0,0.1,0.1,0.3,0.1,0.4c0,0.1,0.1,0.3,0.1,0.4c0.1,0.2,0.1,0.3,0.2,0.5c0.5,1.4,1,2.9,1.5,4.3
		c0,0,0.3,0.7,0.3,0.7l0.2,0.4c0.1,0.3,0.2,0.5,0.3,0.8c0.9,2.3,1.8,4.8,2.7,7.2l1.5,3.8c0.3,0.8,0.6,1.6,0.9,2.3
		c0.8,1.9,0.4,4.2-1.1,5.6c-7.2,7-15.3,12.7-24.3,17.1c2.8,4.8,6.1,9.4,9.8,13.6h44.7c3.1-11.8,4.7-23.9,4.7-36.2
		c0-1.4,0-2.8-0.1-4.2C443.7,523.8,439.5,505.8,431.9,488.9z"/>
</g>
<path d="M793.5,484.4c-1.5-4.3-4-8.3-7.3-11.4c-2.3-2.1-4.6-4.2-6.9-6.4c-10.5-10-20.5-20.6-29.7-31.6
	c-9.9-11.9-19.2-24.5-27.5-37.5c-8.3-12.9-15.7-26.3-22.1-39.7c-0.2-0.3-0.3-0.6-0.6-0.9c-0.3-0.4-0.6-0.7-1-1c0,0,0,0-0.1-0.1
	c-2.5-1.9-5.1-3.7-7.6-5.4c-1.9-1.3-3.8-2.6-5.6-3.9c-8.7-5.9-17.6-11.4-26.6-16.4l-1.1-0.6c-2.6-1.5-5.3-2.9-8-4.3
	c-2.7-1.5-5.5-2.8-8.1-4.1c-0.9-0.5-1.9-0.9-2.8-1.4c-1.9-1-3.8-1.8-5.5-2.6c-1.3-0.7-2.6-1.3-3.9-1.8c-1.1-0.5-2.2-1-3.2-1.4
	c-1.7-0.8-3.5-1.6-5.2-2.3c-2.5-1.1-5.1-2.1-7.5-3.1c-2.1-0.9-4.2-1.7-6.2-2.4c-0.8-0.3-1.6-0.6-2.1-0.8c-2-0.8-4.1-1.5-5.9-2.1
	c-0.7-0.3-1.4-0.5-2-0.7c-2.1-0.7-4.3-1.4-6.4-2.1c-2.9-0.9-5.7-1.8-8.6-2.7c-10.3-3.1-20.9-5.7-31.6-8c-0.1,0-0.2,0-0.2,0
	c-2.5-0.5-5.1-1-7.7-1.5c-2.3-0.4-4.5-0.8-6.8-1.2c-6.2-1-12.4-1.9-18.3-2.5c-2.4-0.3-4.8-0.5-7.3-0.7c-2.5-0.2-5.1-0.5-7.7-0.6
	c-0.1,0-0.4,0-0.5,0l-1.6-0.1c-4.9-0.3-9.9-0.6-14.9-0.7c-7.4-0.3-15.1-0.3-21.4-0.1c-2.3-6.2-5-12.3-8.2-18.3
	c-3.2-6-6.8-11.8-10.6-17c-0.4-0.6-0.8-1.1-1.1-1.6c-0.5-0.7-1-1.3-1.5-1.9c-1-1.4-2.1-2.7-3.1-4c-1.1-1.4-2.3-2.8-3.5-4.1
	c-1.2-1.4-2.5-2.8-3.9-4.3l-0.3-0.3c-0.5-0.5-1-1.1-1.5-1.5c-1.3-1.4-2.6-2.7-3.9-3.9c-1.5-1.4-3-2.8-4.5-4.1c-1.2-1-2.3-2-3.3-2.7
	c-1.1-1-2.2-1.9-3.1-2.5c-1.6-1.3-3.2-2.5-4.7-3.6c-1.8-1.3-3.7-2.6-5.6-3.8c-1.3-0.8-2.5-1.7-3.9-2.5c-1.3-0.8-2.6-1.5-3.8-2.3
	c-1.8-1.1-3.7-2.1-5.6-3.1c-1.9-1-3.8-1.9-5.8-2.8c-4.7-2.2-9.6-4.2-14.7-5.9c-0.6-0.9-1.1-1.9-1.6-2.8c-0.1-0.2-0.2-0.4-0.3-0.6
	c-0.1-0.2-0.1-0.3-0.2-0.4c-0.5-0.9-0.9-1.8-1.4-2.9c-0.8-1.6-1.5-3.2-2.1-4.9c0-0.1-0.1-0.2-0.1-0.4c-0.3-0.7-0.6-1.5-0.9-2.4
	c-0.6-1.6-1.1-3.3-1.6-5.1c-0.3-0.9-0.5-1.7-0.7-2.7c-0.7-2.9-1.3-5.5-1.7-8.1c-0.3-1.8-1.5-3.3-3.1-4c-1.7-0.7-3.6-0.4-5,0.7
	c-1,0.8-2.1,1.6-3.2,2.5l-2,1.7c-0.7,0.6-1.3,1.2-2,1.8l-0.7,0.6c-0.7,0.7-1.4,1.4-2,2c-1.4,1.4-2.9,3-4.6,4.9
	c-0.8,0.9-1.6,1.9-2.5,3c-0.1,0.1-0.2,0.2-0.3,0.4c-0.8,1-1.6,2-2.3,3c-0.5,0.7-1,1.3-1.3,1.8c-0.7,0.9-1.3,1.8-1.8,2.7
	c-0.8,1.2-1.5,2.4-2.2,3.5c-1.6-5.9-2.6-11.9-2.9-18.1c-0.1-2.2-1.6-4.1-3.8-4.7c-2.1-0.6-4.4,0.3-5.6,2.2c-1,1.6-2,3.1-3.1,4.7
	c-0.8,1.2-1.7,2.3-2.6,3.5c-0.1,0.1-0.1,0.2-0.2,0.3c-0.1,0.1-0.1,0.1-0.2,0.2c-3.2,4.3-6.8,8.5-10.7,12.5c-3,3.1-5.8,5.7-8.6,8.2
	c-12.8,11.3-27.3,20-43.1,26c-6.5,2.5-13.4,4.5-20.4,6c-1.6,0.3-2.9,1.4-3.6,2.8c-0.7,1.4-0.7,3.1,0.1,4.5
	c3.5,6.9,6.8,12.9,10.1,18.4c2.3,4.1,4.9,8.3,8.2,13.4c2.5,4,5.2,8,8,11.9c0.8,1.2,2.1,2,3.6,2.1c11.6,1.3,23.4,2.1,35.1,2.3v51.5
	c0,0.2,0,0.3,0,0.5c0,1.1,0,2.1,0,3.2c0,7.2,0.5,14.3,1.5,21.3c0.4,2.4,0.7,4.8,1.2,7.2c0.4,1.7,0.7,3.4,1.1,5.1
	c2.4,10.5,5.9,20.7,10.4,30.2c0.3,0.8,0.7,1.5,1,2.2c15.2,31.1,40.8,56.3,72.2,70.9c1.2,0.6,2.4,1.1,3.6,1.6
	c0.1,0.8,0.3,1.7,0.5,2.5c0,0.3,0.1,0.6,0.2,0.9c0.3,1.6,0.6,3.2,1,4.8l0.4,1.9c0.3,1.4,0.6,2.8,0.9,4.2c0.9,4.1,1.9,8.3,3,12.3
	c0.5,2.1,1.1,4.1,1.6,6.1l0.2,0.7c0.2,0.7,0.4,1.4,0.5,1.9c0.4,1.4,0.8,2.8,1.2,4.2l0.9,2.9c1,3.5,2.2,7,3.4,10.5
	c0.1,0.3,0.2,0.6,0.3,0.8c0.1,0.2,0.2,0.5,0.3,0.7c0.5,1.5,1,3,1.5,4.3c0.1,0.2,0.1,0.4,0.3,0.7c0.1,0.3,0.2,0.6,0.3,0.8l0.2,0.5
	c0.9,2.5,1.9,5,2.9,7.5l1.2,3.1c-7,6.3-15,11.4-23.7,15.1c-1.3,0.5-2.3,1.6-2.8,2.9c-0.5,1.3-0.4,2.8,0.2,4c4,8,9.2,15.5,15.4,22.3
	c1,1,2.3,1.6,3.7,1.6h50.8c2.1,0,4-1.3,4.7-3.2c0.1-0.4,0.2-0.7,0.3-1.1c4-13.6,6-27.8,6-42c0-1.5,0-2.9-0.1-4.4c0,0,0-0.3,0-0.4
	c-0.6-18.4-4.4-36.2-11.4-53c0.6-0.3,1.1-0.6,1.7-0.9l1.1-0.6c3.9-2,8-4,12.4-6c8.9-4.1,18-7.9,27.1-11.3l3.6-1.3
	c2.7-1,5.4-1.9,8.1-2.8c1.7-0.6,3.4-1.1,5.1-1.7l2.7-0.8c0.1,0,0.2-0.1,0.3-0.1c4-1.3,8.1-2.4,12.6-3.6c4.1-1.1,8.5-2.2,12.9-3.2
	c0.2,0,0.3-0.1,0.5-0.1c12.8-2.9,26-5.2,39.1-6.7c14-1.7,28.5-2.5,43.1-2.5c1.2,0,2.3,0,3.5,0c3.5,4.5,7.3,9,11.2,13.5
	c1.3,1.5,2.6,3.1,4,4.5l2.2,2.4c1.4,1.5,2.8,3.1,4.2,4.5c1.6,1.7,3.2,3.4,4.8,5c0.7,0.7,1.4,1.4,2.2,2.2c0,0,0.2,0.2,0.2,0.2
	c0.9,0.9,1.8,1.7,2.5,2.5c0.8,0.9,1.6,1.7,2.6,2.6c0.2,0.2,0.4,0.4,0.6,0.5c0.4,0.5,0.9,0.9,1.4,1.3l0.3,0.3
	c0.4,0.4,0.9,0.8,1.1,1.1c1.4,1.4,2.9,2.8,4.3,4c1.2,1.1,2.3,2.1,3.6,3.2c1.7,1.6,3.4,3,5.1,4.5c0.5,0.5,1,0.9,1.6,1.4l0.4,0.4
	c0.6,0.5,1.1,1,1.7,1.4c2.3,1.9,4.5,3.8,6.8,5.6c10.2,8.2,20.9,15.8,31.7,22.8c-0.8,6.5-2,13-3.7,19.4c-6.1,4.9-12.8,8.8-19.9,11.9
	c-1.3,0.5-2.3,1.6-2.8,2.9c-0.5,1.3-0.4,2.8,0.2,4c3,6,6.7,11.8,10.9,17c1.3,1.7,2.7,3.4,4.5,5.3c1,1,2.3,1.6,3.7,1.6h50.8
	c2.3,0,4.2-1.5,4.9-3.6c3.5-11.9,5.6-24.3,6-36.9c0.1-1.9,0.1-3.9,0.1-5.8c0-9.2-0.8-18.3-2.5-27.2c1.9,0.4,3.9,0.7,5.9,0.7
	c1.9,0,3.8-0.2,5.6-0.6c2.4-0.5,4.7-1.3,6.7-2.4c9.2-4.7,15-14,15-24.4C794.9,490.1,794.5,487.3,793.5,484.4z M256.6,270.2
	c-2.2-3.2-4.3-6.4-6.4-9.6c-3.2-4.9-5.7-9.1-8-13c-0.9-1.5-1.8-3-2.6-4.6c3.2-3.7,8-9.1,12.5-12.9c16.4-6.4,31.6-15.6,44.9-27.3
	c1.6-1.4,3.2-2.8,4.8-4.4c8.2,6.3,17.3,11.2,27.1,14.5c4.4,10.1,10.5,19.3,18.2,27.3c-3.3,24-16.4,45.9-36.1,60.2
	c-3.9,2.9-8.1,5.4-12.5,7.6v-30.5c0-2.8-2.3-5.1-5.1-5.1C281.1,272.2,268.7,271.5,256.6,270.2z M441.1,478.6l-1.1,0.6
	c-2,1-4,2.1-6,3.2c-2.3,1.3-3.2,4.1-2.2,6.5c7.7,16.9,11.8,34.9,12.4,53.7c0,1.4,0.1,2.8,0.1,4.2c0,12.3-1.6,24.4-4.7,36.2h-44.7
	c-3.7-4.2-7-8.8-9.8-13.6c8.9-4.4,17.1-10.2,24.3-17.1c1.5-1.5,1.9-3.7,1.1-5.6c-0.3-0.7-0.6-1.5-0.9-2.3l-1.5-3.8
	c-0.9-2.5-1.9-4.9-2.7-7.2c-0.1-0.3-0.2-0.6-0.3-0.8l-0.2-0.4c0,0-0.3-0.7-0.3-0.7c-0.5-1.4-1-2.9-1.5-4.3c-0.1-0.3-0.1-0.3-0.2-0.5
	c0-0.1-0.1-0.2-0.1-0.4c0-0.1-0.1-0.3-0.1-0.4c-1.2-3.4-2.3-6.9-3.4-10.5l-0.9-2.8c-0.4-1.3-0.8-2.6-1.2-4.2c-0.2-0.5-0.3-1-0.4-1.6
	l-0.2-0.9c-0.6-2-1.1-3.9-1.6-5.9c-1-3.9-2-8-2.9-12c-0.3-1.3-0.6-2.7-0.9-4l-0.4-2c-0.4-1.6-0.6-3.1-0.9-4.8c0-0.1,0-0.1,0-0.2
	c0-0.2-0.1-0.3-0.1-0.5c-0.2-0.7-0.3-1.3-0.4-2c0-0.2,0-0.3-0.1-0.5c-0.2-0.8-0.3-1.7-0.5-2.6c-0.3-1.7-1.5-3.2-3.1-3.8
	c-1.9-0.8-3.8-1.6-5.7-2.5c-29.3-13.6-53.2-37.1-67.3-66.2c-0.3-0.5-0.5-1-0.8-1.8c-4.2-9-7.5-18.6-9.7-28.3
	c16.1-5,31-12.5,44.6-22.6c7.3,7,15.2,13.6,23.5,19.7c-4.8,9.5-8.9,19.3-12.2,29.2c-0.3,0.8,0.1,1.7,0.9,2.1
	c37.3,16.7,69.4,43,93.3,76.2C448.2,475.1,444.6,476.8,441.1,478.6z M753.9,552.3c-0.4,10.5-1.9,20.8-4.6,30.8h-44.7
	c-0.9-1-1.7-2-2.5-3c-2.7-3.4-5.2-6.9-7.3-10.6c6.6-3.3,12.8-7.3,18.5-12v0c0.8-0.7,1.4-1.6,1.7-2.6c2.3-8.5,3.9-17.1,4.7-25.8
	c0.2-1.9-0.7-3.8-2.4-4.8c-11.5-7.2-22.7-15.2-33.5-23.8c-2.3-1.8-4.5-3.6-6.7-5.5c-0.1-0.1-0.2-0.1-0.3-0.2
	c-0.4-0.3-0.9-0.7-1.3-1.1l-0.6-0.5c-0.4-0.4-0.8-0.7-1.2-1.1c-0.1-0.1-0.2-0.2-0.3-0.2c-1.6-1.3-3.2-2.7-5-4.4
	c-1.1-1-2.3-2-3.5-3.1c-1.3-1.1-2.6-2.3-4-3.8c-0.3-0.3-0.6-0.6-1.1-1l-0.5-0.4c-0.4-0.4-0.8-0.7-1.1-1.1c-0.2-0.2-0.4-0.4-0.6-0.6
	l-0.4-0.4c-0.7-0.6-1.3-1.2-2.1-2.1c-0.9-0.8-1.7-1.6-2.5-2.5l-0.3-0.3c-0.7-0.7-1.3-1.3-2-2c-1.6-1.6-3.1-3.2-4.7-4.9
	c-1.3-1.4-2.7-2.9-4.1-4.4l-2.2-2.4c-1.3-1.4-2.6-2.9-3.8-4.4c-4.2-4.7-8.1-9.5-11.8-14.3c0-0.1-0.3-0.3-0.3-0.4l-0.4-0.5
	c-0.9-1.1-2.3-1.7-3.7-1.8c-2-0.1-4.1-0.1-6.1-0.1c-15,0-30,0.9-44.3,2.6c-13.6,1.6-27.3,3.9-40.6,7c-0.2,0-0.3,0.1-0.5,0.1
	c-4.4,1-8.8,2.1-12.9,3.2c-4,1.1-7.8,2.2-11.5,3.3c1.2-9.6,3.4-19.1,6.6-28.3c43.9-5,86.1-17.6,125.5-37.5
	c26.1,57.6,66.8,107.9,117.7,145.9c0.4,4.4,0.7,8.9,0.7,13.3C754,548.7,754,550.5,753.9,552.3z M779.2,505.7
	c-19.4-8.9-32.2-28.5-32.2-50.1c0-2.5,0.2-4.9,0.5-7.4c7.8,9,16.1,17.6,24.8,25.9c2.3,2.2,4.7,4.4,7.1,6.5c2.1,1.9,3.7,4.4,4.5,7.1
	c0.6,1.8,0.9,3.6,0.9,5.4C784.7,497.9,782.7,502.5,779.2,505.7z"/>
<path class="st1" d="M779.2,505.7c-19.4-8.9-32.2-28.5-32.2-50.1c0-2.5,0.2-4.9,0.5-7.4c7.8,9,16.1,17.6,24.8,25.9
	c2.3,2.2,4.7,4.4,7.1,6.5c2.1,1.9,3.7,4.4,4.5,7.1c0.6,1.8,0.9,3.6,0.9,5.4C784.7,497.9,782.7,502.5,779.2,505.7z"/>
</svg>
