<?xml version="1.0" encoding="utf-8"?>
<!-- Generator: Adobe Illustrator 25.3.1, SVG Export Plug-In . SVG Version: 6.00 Build 0)  -->
<svg version="1.1" id="Ebene_1" xmlns="http://www.w3.org/2000/svg" xmlns:xlink="http://www.w3.org/1999/xlink" x="0px" y="0px"
	 viewBox="0 0 2000 400" style="enable-background:new 0 0 2000 400;" xml:space="preserve">
<style type="text/css">
	.st0{fill:#7BCAEF;}
	.st1{fill:#FFFFFF;}
	.st2{fill:#44B2E8;}
	.st3{fill:#DEDEDD;}
</style>
<g>
	<path class="st0" d="M928.9,201.7l44.7-88.2h48.9l-71.1,130.8v83.4h-45v-81.9l-71.1-132.3h49.2L928.9,201.7z"/>
	<path class="st0" d="M1177.6,327.7l-15.6-51h-78l-15.6,51h-48.9l75.6-215.1h55.5l75.9,215.1H1177.6z M1151.2,238.6l-15.6-49.8
		c-1-3.4-2.3-7.7-3.9-12.9c-1.6-5.2-3.2-10.5-4.8-15.9c-1.6-5.4-2.9-10.1-3.9-14.1c-1,4-2.4,9-4,14.8c-1.7,5.9-3.3,11.5-4.8,16.8
		c-1.5,5.3-2.7,9.1-3.5,11.2l-15.3,49.8H1151.2z"/>
	<path class="st0" d="M1456.9,220.3c0,22.2-3.7,41.6-11,58.1c-7.3,16.5-18.5,29.4-33.6,38.5c-15.1,9.2-34.3,13.8-57.4,13.8
		c-23.2,0-42.4-4.6-57.5-13.8c-15.1-9.2-26.3-22.1-33.6-38.7c-7.3-16.6-10.9-36-10.9-58.2c0-22.2,3.6-41.5,10.9-57.9
		c7.3-16.4,18.5-29.1,33.6-38.2c15.1-9.1,34.3-13.7,57.8-13.7c23.2,0,42.3,4.6,57.3,13.7c15,9.1,26.1,21.9,33.5,38.4
		C1453.2,178.8,1456.9,198.1,1456.9,220.3z M1300.6,220.3c0,22.4,4.3,40.1,12.9,53c8.6,12.9,22.4,19.4,41.4,19.4
		c19.4,0,33.3-6.5,41.7-19.4c8.4-12.9,12.6-30.5,12.6-53c0-22.4-4.2-40-12.6-52.9c-8.4-12.9-22.2-19.4-41.4-19.4
		s-33.1,6.5-41.7,19.4C1304.9,180.3,1300.6,198,1300.6,220.3z"/>
	<path class="st0" d="M1710.7,220.3c0,22.2-3.7,41.6-11,58.1c-7.3,16.5-18.5,29.4-33.6,38.5c-15.1,9.2-34.3,13.8-57.4,13.8
		c-23.2,0-42.4-4.6-57.5-13.8c-15.1-9.2-26.3-22.1-33.6-38.7c-7.3-16.6-10.9-36-10.9-58.2c0-22.2,3.6-41.5,10.9-57.9
		c7.3-16.4,18.5-29.1,33.6-38.2c15.1-9.1,34.3-13.7,57.8-13.7c23.2,0,42.3,4.6,57.3,13.7c15,9.1,26.1,21.9,33.5,38.4
		C1707,178.8,1710.7,198.1,1710.7,220.3z M1554.4,220.3c0,22.4,4.3,40.1,12.9,53c8.6,12.9,22.4,19.4,41.4,19.4
		c19.4,0,33.3-6.5,41.7-19.4c8.4-12.9,12.6-30.5,12.6-53c0-22.4-4.2-40-12.6-52.9c-8.4-12.9-22.2-19.4-41.4-19.4
		s-33.1,6.5-41.7,19.4C1558.7,180.3,1554.4,198,1554.4,220.3z"/>
	<path class="st0" d="M1942.2,327.7h-51.6l-56.1-90.3l-19.2,13.8v76.5H1770V113.5h45.3v98.1c3-4.2,6-8.4,9-12.6s6-8.4,9-12.6
		l57.9-72.9h50.4l-74.7,94.8L1942.2,327.7z"/>
</g>
<g>
	<g>
		<path class="st1" d="M1419.7,291.4c3.3-1.7,6.6-3.3,10.3-5c7.3-3.4,14.9-6.6,22.4-9.4l3-1.1c2.2-0.8,4.5-1.6,6.8-2.3
			c1.4-0.5,2.8-0.9,4.3-1.4l2.4-0.7c0.1,0,0.2,0,0.2-0.1c3.3-1,6.6-2,10.2-3c3.3-0.9,6.8-1.8,10.4-2.6c0.1,0,0.2-0.1,0.4-0.1
			c10.8-2.5,21.8-4.4,32.8-5.6c11.6-1.4,23.6-2.1,35.8-2.1c1.7,0,3.3,0,5,0.1c1.2,0,2.2,0.6,3,1.5l0.3,0.4c0,0,0.2,0.3,0.3,0.3
			c3,3.8,6.2,7.7,9.5,11.5c1,1.2,2.1,2.4,3.1,3.5l1.7,1.9c1.1,1.2,2.2,2.4,3.3,3.5c1.3,1.3,2.5,2.6,3.8,3.9c0.6,0.6,1.1,1.1,1.6,1.6
			l0.3,0.3c0.7,0.7,1.3,1.3,2,2c0.7,0.7,1.2,1.2,1.7,1.7l0.4,0.3c0.2,0.1,0.3,0.3,0.5,0.5c0.3,0.3,0.6,0.6,0.9,0.9l0.4,0.3
			c0.3,0.3,0.6,0.6,0.9,0.8c1.2,1.2,2.2,2.1,3.3,3c1,0.9,1.9,1.7,2.8,2.5c1.4,1.3,2.7,2.4,4,3.5c0.1,0.1,0.2,0.1,0.2,0.2
			c0.3,0.3,0.7,0.6,1,0.9l0.4,0.4c0.4,0.3,0.7,0.6,1.1,0.9c0.1,0.1,0.1,0.1,0.2,0.2c1.8,1.5,3.6,3,5.4,4.4
			c8.7,6.9,17.8,13.4,27,19.2c1.3,0.8,2.1,2.3,1.9,3.9c-0.7,7-1.9,14-3.8,20.8c-0.2,0.8-0.7,1.6-1.4,2.1v0c-4.6,3.8-9.7,7.1-15,9.7
			c1.7,3,3.7,5.8,5.9,8.5c0.6,0.8,1.3,1.6,2,2.4h36.1c2.1-8.1,3.4-16.4,3.7-24.9c0.1-1.5,0.1-2.9,0.1-4.4c0-9.4-1.2-18.8-3.4-27.9
			c0,0,0,0,0,0c-0.5-1.9-1-3.7-1.6-5.6c-1.6-1.3-3-2.4-4.3-3.5c-0.8-0.6-1.6-1.4-2.5-2.1c-10.6-9.3-19.3-20.2-26.1-32.3
			c-0.2-0.2-0.3-0.5-0.4-0.7c-3.7-6.7-6.8-13.9-9.1-21.2c-1.7-5.4-3.1-11-4.1-16.6c-0.4-2.2-0.7-4.3-0.9-6.3
			c-0.6-4.6-0.8-9.5-0.8-14.3c0-6.3,0.5-12.6,1.4-18.7c-1.3-0.9-2.6-1.9-3.9-2.8c-1.5-1-2.9-2.1-4.4-3c-6.9-4.6-13.9-9-20.9-12.9
			l-0.9-0.5c-2.1-1.2-4.2-2.3-6.3-3.4c-2.1-1.1-4.3-2.2-6.4-3.3c-0.7-0.4-1.3-0.7-1.9-0.9c-0.1,0-0.2-0.1-0.3-0.1
			c-1.4-0.7-2.9-1.4-4.4-2.1c-1.1-0.5-2-1-3-1.4c-0.8-0.4-1.5-0.7-2.2-1c-0.1,0-0.2-0.1-0.3-0.1c-1.3-0.6-2.7-1.2-4-1.8
			c-2-0.8-4-1.7-6-2.4c-1.7-0.7-3.3-1.3-5-1.9c-0.6-0.2-0.9-0.4-1.3-0.5c-1.8-0.7-3.3-1.2-4.9-1.8c-0.6-0.2-1-0.4-1.5-0.5
			c-1.7-0.6-3.4-1.1-5.1-1.7c-2.3-0.7-4.5-1.4-6.8-2.1c-8-2.4-16.3-4.5-24.7-6.2c-0.1,0-0.1,0-0.2,0c-2-0.4-4.1-0.8-6.1-1.2
			c-1.8-0.3-3.6-0.7-5.4-0.9c-4.9-0.8-9.7-1.5-14.5-2c-1.9-0.2-3.7-0.4-5.6-0.6c-2.1-0.2-4.1-0.4-6.1-0.5c0,0-0.3,0-0.4,0l-1.3-0.1
			c-3.9-0.3-7.8-0.5-11.7-0.6c-3-0.1-5.9-0.2-8.9-0.2c-4.1,0-7.6,0.1-10.8,0.2c-1.8,0.1-3.5-1.1-4.1-2.8c-1.9-5.6-4.3-11.1-7.1-16.4
			c-2.4-4.5-5.1-8.9-8.1-13c-0.3-0.4-0.5-0.7-0.7-0.9c-0.4-0.6-0.7-1-1.1-1.4c-0.1-0.1-0.1-0.1-0.2-0.2c-0.7-1-1.5-2-2.3-3
			c-0.9-1.1-1.7-2.1-2.6-3.1c-0.9-1-1.8-2-2.8-3.1l-0.2-0.2c0,0-0.2-0.2-0.2-0.2c-0.4-0.4-0.7-0.7-1.1-1.1c-1-1-1.9-2-2.9-2.9
			c-1.2-1.1-2.3-2.1-3.4-3.1c-0.8-0.7-1.6-1.4-2.5-2.1c-0.9-0.8-1.5-1.3-2.2-1.8c-1.3-1-2.4-1.9-3.6-2.7c-1.4-1.1-2.8-2-4.2-2.9
			c-1-0.7-1.9-1.3-2.9-1.9c-0.9-0.6-1.9-1.1-2.9-1.7c-1.4-0.8-2.8-1.6-4.2-2.3c-1.4-0.7-2.9-1.5-4.3-2.1c-4-1.9-8.2-3.5-12.4-4.9
			c-1-0.3-1.8-1-2.3-1.9l-0.3-0.5c0-0.1-0.1-0.2-0.1-0.2c0,0-0.1-0.1-0.1-0.2c-0.6-1.1-1.2-2-1.6-2.9c-0.2-0.3-0.3-0.6-0.5-0.9
			c-0.5-0.9-0.9-1.8-1.3-2.6c-0.7-1.4-1.4-2.9-1.9-4.5c-0.4-0.8-0.7-1.6-0.9-2.5c-0.5-1.4-1-3-1.4-4.5c-0.2-0.7-0.5-1.7-0.7-2.7
			c0-0.1,0-0.2-0.1-0.3c0,0,0,0,0,0l-0.6,0.5c-0.4,0.4-0.9,0.9-1.3,1.3c-1.1,1.1-2.2,2.2-3.4,3.6c-0.6,0.7-1.2,1.4-1.7,2.1
			c-0.1,0.1-0.2,0.3-0.3,0.4c-0.5,0.6-1,1.3-1.5,2c-0.4,0.5-0.7,1-1,1.4c-0.5,0.7-1,1.4-1.4,2c-0.6,1-1.2,1.9-1.7,2.8
			c-1.5,2.5-2.8,5.1-3.9,7.7c-0.6,1.5-2.1,2.5-3.8,2.5h0c-1.6,0-3.1-1-3.8-2.5c-1.2-2.9-2.3-5.9-3.1-8.9c-0.6-2.2-1.2-4.4-1.6-6.7
			c-2.6,3.3-5.3,6.5-8.3,9.5c-2.6,2.7-5,5-7.4,7.1c-10.8,9.5-23,16.9-36.3,22.1c-3.6,3.1-7.6,7.4-10.1,10.4c0.7,1.3,1.4,2.5,2.1,3.7
			c1.9,3.2,3.9,6.6,6.4,10.5c1.7,2.6,3.4,5.2,5.2,7.8c9.8,1.1,19.8,1.6,29.7,1.6c2.3,0,4.1,1.8,4.1,4.1v45.2c0,0.2,0,0.4,0,0.6
			c0,1,0,1.9,0,2.8c0,5.4,0.4,10.8,1.1,16c0.3,1.8,0.6,3.6,0.9,5.4c0.3,1.3,0.5,2.6,0.8,3.9c1.8,7.9,4.4,15.6,7.9,22.9
			c0.2,0.4,0.3,0.7,0.4,0.9C1357.2,236.1,1393.6,259.4,1419.7,291.4"/>
	</g>
	<g>
		<path class="st2" d="M1313.7,87.5c0,3.8-3.1,6.8-6.9,6.8s-6.8-3.1-6.8-6.8c0-3.8,3.1-6.9,6.8-6.9S1313.7,83.8,1313.7,87.5"/>
	</g>
	<g>
		<path d="M1642.8,328.4c-3.5-2.2-7-4.5-10.5-6.9c4,3.8,8.1,7.4,12.4,10.9c0,0,0-0.1,0-0.1C1644.8,330.7,1644.1,329.2,1642.8,328.4"
			/>
	</g>
	<g>
		<path class="st3" d="M1568.7,236.4c-32.1,14.4-67.2,23.4-104.1,25.7v10.8c0.6-0.2,1.2-0.4,1.8-0.6l2.4-0.7c0.1,0,0.2,0,0.2-0.1
			c3.3-1,6.6-2,10.2-3c3.3-0.9,6.8-1.8,10.4-2.6c0.1,0,0.2-0.1,0.4-0.1c10.8-2.5,21.8-4.4,32.8-5.6c11.6-1.4,23.6-2.1,35.8-2.1
			c1.7,0,3.3,0,5,0.1c1.2,0,2.2,0.6,3,1.5l0.3,0.4c0,0,0.2,0.3,0.3,0.3c3,3.8,6.2,7.7,9.5,11.5c1,1.2,2.1,2.4,3.1,3.5l1.7,1.9
			c1.1,1.2,2.2,2.4,3.3,3.6c1.3,1.3,2.5,2.6,3.8,3.9c0.6,0.6,1.1,1.1,1.6,1.6l0.3,0.3c0.7,0.7,1.3,1.3,2,2c0.6,0.7,1.2,1.2,1.7,1.7
			l0.4,0.3c0.2,0.1,0.3,0.3,0.5,0.5c0.3,0.3,0.6,0.6,0.9,0.9l0.4,0.3c0.3,0.3,0.6,0.6,0.8,0.8c1.2,1.2,2.2,2.1,3.3,3
			c1,0.9,1.9,1.7,2.8,2.5c1.4,1.3,2.7,2.4,4,3.5c0.1,0.1,0.1,0.1,0.2,0.2c0.3,0.3,0.7,0.6,1,0.9l0.4,0.4c0.4,0.3,0.7,0.6,1.1,0.9
			c0.1,0.1,0.1,0.1,0.2,0.2c1.8,1.5,3.6,3,5.4,4.4c5.4,4.3,10.9,8.4,16.6,12.3C1606.4,297.2,1584.8,268.4,1568.7,236.4"/>
	</g>
	<g>
		<path class="st3" d="M1412.1,299.8c-0.9-1.9-0.1-4.2,1.7-5.3c1.6-0.9,3.2-1.7,4.8-2.6l0.7-0.4c-26-31.8-62.3-55-103.7-64.4
			c11.4,23.5,30.7,42.4,54.4,53.4c1.5,0.7,3.1,1.4,4.6,2c1.3,0.5,2.2,1.7,2.5,3.1c0.1,0.7,0.3,1.4,0.4,2.1c0,0.1,0.1,0.3,0.1,0.4
			c0.1,0.5,0.2,1.1,0.3,1.6c0,0.1,0.1,0.3,0.1,0.4c0,0,0,0.1,0,0.1c0.2,1.3,0.5,2.6,0.8,3.9l0.3,1.6c0.2,1.1,0.5,2.2,0.7,3.3
			c0.7,3.3,1.5,6.5,2.4,9.7c0.4,1.6,0.8,3.2,1.3,4.8l0.2,0.7c0.1,0.4,0.2,0.8,0.4,1.3c0.3,1.2,0.7,2.3,1,3.4l0.7,2.3
			c0.9,2.9,1.8,5.7,2.8,8.5c0,0.1,0.1,0.2,0.1,0.3c0,0.1,0.1,0.2,0.1,0.3c0.1,0.2,0.1,0.2,0.2,0.4c0.4,1.1,0.8,2.3,1.2,3.5
			c0,0,0.2,0.6,0.2,0.6l0.1,0.3c0.1,0.2,0.2,0.4,0.2,0.7c0.7,1.9,1.4,3.8,2.2,5.8l1.2,3.1c0.3,0.7,0.5,1.3,0.8,1.9
			c0.6,1.6,0.3,3.4-0.9,4.6c-5.8,5.6-12.4,10.3-19.6,13.8c2.2,3.9,4.9,7.6,7.9,11h36.1c2.5-9.5,3.8-19.3,3.8-29.2
			c0-1.1,0-2.3-0.1-3.4C1421.7,328,1418.3,313.5,1412.1,299.8"/>
	</g>
	<g>
		<path d="M1692.6,313.3c-15.7-7.2-26-23-26-40.5c0-2,0.1-4,0.4-6c6.3,7.2,13,14.2,20,20.9c1.9,1.8,3.8,3.5,5.7,5.3
			c1.7,1.5,3,3.5,3.7,5.7c0.5,1.4,0.7,2.9,0.7,4.4C1697.1,307.1,1695.5,310.7,1692.6,313.3 M1672.2,351c-0.3,8.4-1.6,16.8-3.7,24.9
			h-36.1c-0.7-0.8-1.4-1.6-2-2.4c-2.2-2.7-4.2-5.6-5.9-8.5c5.3-2.6,10.3-5.9,15-9.7v0c0.7-0.5,1.1-1.3,1.4-2.1
			c1.9-6.8,3.2-13.8,3.8-20.8c0.1-1.5-0.6-3-1.9-3.9c-9.3-5.8-18.4-12.3-27-19.2c-1.8-1.4-3.6-2.9-5.4-4.4c-0.1-0.1-0.1-0.1-0.2-0.2
			c-0.4-0.3-0.7-0.6-1.1-0.9l-0.4-0.4c-0.3-0.3-0.7-0.6-1-0.9c-0.1-0.1-0.1-0.1-0.2-0.2c-1.3-1.1-2.6-2.2-4-3.5
			c-0.9-0.8-1.8-1.6-2.8-2.5c-1.1-0.9-2.1-1.9-3.3-3c-0.3-0.2-0.5-0.5-0.9-0.8l-0.4-0.3c-0.3-0.3-0.6-0.6-0.9-0.9
			c-0.2-0.2-0.3-0.3-0.5-0.5l-0.4-0.3c-0.5-0.5-1-1-1.7-1.7c-0.7-0.7-1.4-1.3-2-2l-0.3-0.3c-0.5-0.5-1.1-1.1-1.6-1.6
			c-1.3-1.3-2.5-2.6-3.8-3.9c-1.1-1.1-2.2-2.3-3.3-3.5l-1.7-1.9c-1-1.2-2.1-2.3-3.1-3.5c-3.4-3.8-6.6-7.7-9.5-11.5
			c0,0-0.2-0.3-0.3-0.3l-0.3-0.4c-0.7-0.9-1.8-1.4-3-1.5c-1.6-0.1-3.3-0.1-5-0.1c-12.2,0-24.2,0.7-35.8,2.1c-11,1.3-22,3.2-32.8,5.6
			c-0.1,0-0.2,0.1-0.4,0.1c-3.6,0.8-7.1,1.7-10.4,2.6c-3.3,0.9-6.3,1.8-9.3,2.7c1-7.8,2.8-15.5,5.3-22.9
			c35.5-4,69.5-14.2,101.3-30.3c21.1,46.5,53.9,87.1,95.1,117.8c0.3,3.6,0.6,7.1,0.6,10.8C1672.3,348.1,1672.3,349.5,1672.2,351
			 M1419.6,291.5l-0.9,0.5c-1.6,0.8-3.2,1.7-4.8,2.6c-1.9,1-2.6,3.3-1.7,5.3c6.2,13.6,9.6,28.2,10,43.4c0,1.1,0.1,2.3,0.1,3.4
			c0,9.9-1.3,19.7-3.8,29.2h-36.1c-3-3.4-5.7-7.1-7.9-11c7.2-3.6,13.8-8.2,19.6-13.8c1.2-1.2,1.6-3,0.9-4.6
			c-0.2-0.6-0.5-1.2-0.8-1.9l-1.2-3.1c-0.8-2-1.5-4-2.2-5.8c-0.1-0.2-0.2-0.4-0.2-0.7l-0.1-0.3c0,0-0.2-0.6-0.2-0.6
			c-0.4-1.2-0.8-2.3-1.2-3.5c-0.1-0.2-0.1-0.2-0.2-0.4c0-0.1-0.1-0.2-0.1-0.3c0-0.1-0.1-0.2-0.1-0.3c-0.9-2.8-1.9-5.6-2.8-8.5
			l-0.7-2.3c-0.3-1.1-0.6-2.1-1-3.4c-0.1-0.4-0.2-0.8-0.4-1.3l-0.2-0.7c-0.5-1.6-0.9-3.2-1.3-4.8c-0.8-3.2-1.6-6.4-2.4-9.7
			c-0.3-1.1-0.5-2.2-0.7-3.3l-0.3-1.6c-0.3-1.3-0.5-2.5-0.8-3.9c0,0,0-0.1,0-0.1c0-0.1,0-0.3-0.1-0.4c-0.1-0.5-0.2-1.1-0.3-1.6
			c0-0.1,0-0.3-0.1-0.4c-0.2-0.7-0.3-1.4-0.4-2.1c-0.2-1.4-1.2-2.6-2.5-3.1c-1.6-0.6-3.1-1.3-4.6-2c-23.6-11-42.9-29.9-54.4-53.4
			c-0.2-0.4-0.4-0.8-0.7-1.4c-3.4-7.3-6.1-15-7.9-22.9c13-4,25.1-10.1,36-18.3c5.9,5.6,12.3,11,19,15.9c-3.8,7.7-7.2,15.6-9.8,23.6
			c-0.2,0.7,0.1,1.4,0.7,1.7c30.1,13.5,56.1,34.7,75.4,61.5C1425.4,288.6,1422.4,290,1419.6,291.5 M1270.6,123.2
			c-1.8-2.6-3.5-5.2-5.2-7.8c-2.6-4-4.6-7.3-6.4-10.5c-0.7-1.2-1.4-2.4-2.1-3.7c2.6-3,6.5-7.3,10.1-10.4c13.3-5.2,25.5-12.6,36.3-22
			c1.3-1.1,2.6-2.3,3.9-3.5c6.6,5.1,14,9.1,21.9,11.7c3.6,8.2,8.5,15.6,14.7,22c-2.6,19.4-13.2,37.1-29.2,48.6
			c-3.2,2.3-6.6,4.3-10.1,6.1v-24.7c0-2.3-1.8-4.1-4.1-4.1C1290.4,124.8,1280.4,124.2,1270.6,123.2 M1704.2,296.2
			c-1.2-3.5-3.2-6.7-5.9-9.2c-1.9-1.7-3.7-3.4-5.6-5.2c-8.5-8.1-16.6-16.6-24-25.5c-8-9.6-15.5-19.8-22.2-30.3
			c-6.7-10.4-12.7-21.2-17.8-32.1c-0.1-0.3-0.3-0.5-0.5-0.7c-0.2-0.3-0.5-0.6-0.8-0.8c0,0,0,0,0,0c-2-1.5-4.1-3-6.1-4.4
			c-1.5-1.1-3-2.1-4.5-3.1c-7-4.7-14.2-9.2-21.5-13.3l-0.9-0.5c-2.1-1.2-4.3-2.3-6.4-3.5c-2.2-1.2-4.4-2.3-6.6-3.3
			c-0.7-0.4-1.5-0.8-2.3-1.1c-1.5-0.8-3.1-1.5-4.5-2.1c-1.1-0.5-2.1-1-3.1-1.4c-0.9-0.4-1.7-0.8-2.6-1.1c-1.4-0.7-2.8-1.3-4.2-1.8
			c-2.1-0.9-4.1-1.7-6.1-2.5c-1.7-0.7-3.4-1.3-5-1.9c-0.6-0.3-1.3-0.5-1.7-0.6c-1.6-0.6-3.3-1.2-4.8-1.7c-0.6-0.2-1.1-0.4-1.7-0.6
			c-1.7-0.6-3.4-1.2-5.1-1.7c-2.3-0.8-4.6-1.5-7-2.2c-8.3-2.5-16.9-4.6-25.5-6.4c-0.1,0-0.1,0-0.2,0c-2.1-0.4-4.1-0.8-6.2-1.2
			c-1.8-0.3-3.7-0.7-5.5-0.9c-5-0.8-10-1.5-14.8-2.1c-1.9-0.2-3.9-0.4-5.9-0.6c-2-0.2-4.1-0.4-6.2-0.5c-0.1,0-0.3,0-0.4,0l-1.3-0.1
			c-3.9-0.3-8-0.5-12-0.6c-6-0.2-12.2-0.2-17.3-0.1c-1.9-5-4.1-10-6.6-14.7c-2.6-4.9-5.5-9.6-8.6-13.7c-0.3-0.5-0.6-0.9-0.9-1.3
			c-0.4-0.5-0.8-1-1.2-1.6c-0.8-1.1-1.7-2.2-2.5-3.2c-0.9-1.1-1.9-2.2-2.8-3.3c-1-1.1-2-2.3-3.2-3.4l-0.2-0.2
			c-0.4-0.4-0.8-0.9-1.2-1.2c-1.1-1.1-2.1-2.2-3.2-3.2c-1.2-1.1-2.4-2.2-3.6-3.3c-0.9-0.8-1.9-1.6-2.6-2.2c-0.9-0.8-1.8-1.5-2.5-2
			c-1.3-1-2.6-2-3.8-2.9c-1.5-1.1-3-2.1-4.5-3.1c-1-0.7-2-1.3-3.1-2c-1-0.6-2.1-1.2-3.1-1.8c-1.5-0.8-3-1.7-4.5-2.5
			c-1.5-0.8-3.1-1.6-4.6-2.3c-3.8-1.8-7.8-3.4-11.8-4.8c-0.5-0.7-0.9-1.5-1.3-2.3c-0.1-0.2-0.2-0.3-0.3-0.5
			c-0.1-0.1-0.1-0.2-0.2-0.4c-0.4-0.7-0.8-1.4-1.2-2.3c-0.6-1.3-1.2-2.6-1.7-3.9c0-0.1-0.1-0.2-0.1-0.3c-0.3-0.6-0.5-1.2-0.7-1.9
			c-0.5-1.3-0.9-2.6-1.3-4.1c-0.2-0.7-0.4-1.4-0.6-2.2c-0.6-2.3-1-4.5-1.3-6.6c-0.2-1.4-1.2-2.6-2.5-3.2c-1.3-0.5-2.9-0.3-4,0.5
			c-0.8,0.6-1.7,1.3-2.6,2l-1.6,1.4c-0.6,0.5-1.1,1-1.6,1.4l-0.6,0.5c-0.6,0.5-1.1,1.1-1.6,1.6c-1.2,1.1-2.3,2.4-3.7,4
			c-0.7,0.8-1.3,1.5-2,2.4c-0.1,0.1-0.1,0.2-0.2,0.3c-0.7,0.8-1.3,1.6-1.8,2.4c-0.4,0.5-0.8,1.1-1,1.5c-0.5,0.7-1,1.5-1.5,2.2
			c-0.6,1-1.2,1.9-1.8,2.9c-1.3-4.7-2.1-9.6-2.4-14.6c-0.1-1.8-1.3-3.3-3.1-3.8c-1.7-0.4-3.6,0.3-4.5,1.8c-0.8,1.3-1.7,2.5-2.5,3.8
			c-0.7,0.9-1.4,1.9-2.1,2.8c-0.1,0.1-0.1,0.1-0.2,0.2c0,0.1-0.1,0.1-0.1,0.2c-2.6,3.5-5.5,6.8-8.6,10.1c-2.4,2.5-4.7,4.6-6.9,6.6
			c-10.3,9.1-22,16.1-34.8,21c-5.3,2-10.8,3.6-16.5,4.8c-1.3,0.3-2.3,1.1-2.9,2.3c-0.6,1.2-0.5,2.5,0.1,3.6
			c2.9,5.6,5.5,10.4,8.1,14.8c1.9,3.3,4,6.7,6.6,10.8c2,3.2,4.2,6.5,6.4,9.6c0.7,1,1.7,1.6,2.9,1.7c9.4,1.1,18.9,1.7,28.4,1.9v41.6
			c0,0.1,0,0.2,0,0.4c0,0.9,0,1.7,0,2.6c0,5.8,0.4,11.6,1.2,17.2c0.3,2,0.6,3.9,1,5.8c0.3,1.4,0.6,2.8,0.9,4.2
			c1.9,8.5,4.8,16.7,8.4,24.4c0.3,0.6,0.5,1.2,0.8,1.7c12.2,25.1,32.9,45.5,58.3,57.2c1,0.5,2,0.9,2.9,1.3c0.1,0.7,0.2,1.3,0.4,2
			c0,0.2,0.1,0.4,0.1,0.7c0.2,1.3,0.5,2.6,0.8,3.9l0.3,1.6c0.2,1.1,0.5,2.3,0.7,3.4c0.7,3.3,1.6,6.7,2.4,9.9
			c0.4,1.7,0.9,3.3,1.3,4.9l0.2,0.6c0.1,0.6,0.3,1.1,0.4,1.5c0.3,1.1,0.6,2.2,1,3.4l0.7,2.4c0.8,2.8,1.8,5.7,2.8,8.5
			c0.1,0.3,0.1,0.5,0.2,0.7c0.1,0.2,0.1,0.4,0.2,0.6c0.4,1.2,0.8,2.4,1.2,3.5c0.1,0.2,0.1,0.3,0.2,0.5c0.1,0.2,0.2,0.5,0.2,0.7
			l0.1,0.4c0.7,2,1.5,4,2.3,6.1l1,2.5c-5.7,5.1-12.1,9.2-19.2,12.2c-1,0.4-1.9,1.3-2.2,2.4c-0.4,1.1-0.3,2.2,0.2,3.3
			c3.2,6.5,7.4,12.5,12.4,18c0.8,0.8,1.9,1.3,3,1.3h41c1.7,0,3.2-1,3.8-2.6c0.1-0.3,0.2-0.6,0.3-0.9c3.2-11,4.8-22.4,4.8-33.9
			c0-1.2,0-2.4-0.1-3.6c0,0,0-0.3,0-0.3c-0.5-14.8-3.6-29.2-9.2-42.8c0.4-0.2,0.9-0.5,1.4-0.7l0.9-0.5c3.2-1.6,6.5-3.2,10-4.9
			c7.2-3.3,14.5-6.4,21.9-9.1l2.9-1.1c2.2-0.8,4.4-1.5,6.6-2.3c1.4-0.5,2.7-0.9,4.1-1.3l2.2-0.7c0.1,0,0.2,0,0.3-0.1
			c3.2-1,6.5-2,10.1-2.9c3.3-0.9,6.9-1.8,10.4-2.6c0.1,0,0.3-0.1,0.4-0.1c10.4-2.4,21-4.2,31.6-5.4c11.3-1.4,23-2.1,34.8-2.1
			c0.9,0,1.9,0,2.8,0c2.9,3.6,5.9,7.3,9.1,10.9c1.1,1.2,2.1,2.5,3.2,3.6l1.8,1.9c1.1,1.2,2.3,2.5,3.4,3.7c1.3,1.4,2.6,2.7,3.9,4
			c0.5,0.6,1.1,1.1,1.8,1.8c0,0,0.2,0.2,0.2,0.2c0.7,0.7,1.4,1.4,2,2c0.7,0.7,1.3,1.3,2.1,2.1c0.1,0.1,0.3,0.3,0.5,0.4
			c0.4,0.4,0.7,0.7,1.1,1.1l0.2,0.2c0.4,0.4,0.7,0.7,0.9,0.9c1.2,1.2,2.3,2.2,3.4,3.2c0.9,0.9,1.9,1.7,2.9,2.6
			c1.4,1.3,2.7,2.5,4.1,3.6c0.4,0.4,0.8,0.7,1.3,1.1l0.4,0.3c0.4,0.4,0.9,0.8,1.4,1.1c1.8,1.6,3.7,3.1,5.5,4.6
			c8.2,6.6,16.9,12.8,25.6,18.4c-0.6,5.2-1.6,10.5-3,15.7c-4.9,3.9-10.3,7.1-16,9.6c-1,0.4-1.8,1.3-2.2,2.4
			c-0.4,1.1-0.3,2.2,0.2,3.2c2.4,4.9,5.4,9.5,8.8,13.7c1,1.3,2.2,2.7,3.6,4.3c0.8,0.8,1.9,1.3,3,1.3h41c1.8,0,3.4-1.2,3.9-2.9
			c2.8-9.6,4.5-19.7,4.9-29.8c0.1-1.6,0.1-3.1,0.1-4.7c0-7.4-0.7-14.8-2-22c1.5,0.3,3.1,0.6,4.7,0.6c1.5,0,3-0.2,4.5-0.5
			c2-0.4,3.8-1.1,5.4-1.9c7.5-3.8,12.1-11.3,12.1-19.7C1705.3,300.8,1705,298.5,1704.2,296.2"/>
	</g>
	<g>
		<path class="st1" d="M1692.6,313.3c-15.7-7.2-26-23-26-40.5c0-2,0.1-4,0.4-6c6.3,7.2,13,14.2,20,20.9c1.9,1.8,3.8,3.5,5.7,5.3
			c1.7,1.5,3,3.5,3.7,5.7c0.5,1.4,0.7,2.9,0.7,4.4C1697.1,307.1,1695.5,310.7,1692.6,313.3"/>
	</g>
</g>
<g>
	<rect y="208.1" class="st0" width="795.3" height="40"/>
</g>
</svg>
